<svg id="Layer_1" data-name="Layer 1" xmlns="http://www.w3.org/2000/svg" viewBox="0 0 128 128"><defs><style>.cls-1{fill:#ff952c;}</style></defs><title>icon</title><path class="cls-1" d="M50.5,112a21,21,0,0,1-15-35.7V31a15,15,0,0,1,30,0V76.3a21,21,0,0,1-15,35.7Zm0-90a9,9,0,0,0-9,9V77.6a3,3,0,0,1-1,2.2,15,15,0,1,0,20,0,3,3,0,0,1-1-2.2V31a9,9,0,0,0-9-9Z"/><path class="cls-1" d="M53.5,82.5v-50a3,3,0,0,0-6,0v50a9.1,9.1,0,0,0-6,8.5,9,9,0,0,0,18,0A9.1,9.1,0,0,0,53.5,82.5ZM50.5,94a3,3,0,1,1,3-3A2.9,2.9,0,0,1,50.5,94Z"/><path class="cls-1" d="M95.5,40a2.9,2.9,0,0,1-3-3,15,15,0,0,0-15-15,3,3,0,0,1,0-6,21,21,0,0,1,21,21A2.9,2.9,0,0,1,95.5,40Z"/><path class="cls-1" d="M85,40a2.9,2.9,0,0,1-3-3,4.5,4.5,0,0,0-4.5-4.5,3,3,0,0,1,0-6A10.5,10.5,0,0,1,88,37,2.9,2.9,0,0,1,85,40Z"/><path class="cls-1" d="M74.5,43a3,3,0,0,1,0-6h0a3,3,0,0,1,0,6Z"/></svg>