<svg id="Layer_1" data-name="Layer 1" xmlns="http://www.w3.org/2000/svg" viewBox="0 0 128 128"><defs><style>.cls-1,.cls-4{fill:#ff2929;}.cls-2{fill:#fff;}.cls-3{fill:none;stroke:#ff2929;stroke-miterlimit:10;stroke-width:5px;}.cls-4{font-size:30.69px;font-family:Roboto-Black, Roboto;letter-spacing:-0.01em;}.cls-5{letter-spacing:0em;}</style></defs><title>icon</title><path class="cls-1" d="M79.5,63.4C73.7,46.2,58.4,23.1,53.6,23.1s-20.2,23.3-26,40.5a28.8,28.8,0,0,0-2.2,11,28.3,28.3,0,1,0,56.5,0A27.8,27.8,0,0,0,79.5,63.4Z"/><circle class="cls-2" cx="74" cy="82.2" r="24.6"/><path class="cls-2" d="M74,59.6A22.7,22.7,0,1,1,51.4,82.2,22.6,22.6,0,0,1,74,59.6m0-4a26.7,26.7,0,1,0,26.6,26.6A26.7,26.7,0,0,0,74,55.6Z"/><path class="cls-1" d="M74,108.4a26.2,26.2,0,1,1,26.1-26.2A26.1,26.1,0,0,1,74,108.4Zm0-45.3A19.2,19.2,0,1,0,93.1,82.2,19.1,19.1,0,0,0,74,63.1Z"/><path class="cls-2" d="M74,58.1A24.2,24.2,0,1,1,49.9,82.2,24.1,24.1,0,0,1,74,58.1m0,45.3A21.2,21.2,0,1,0,52.9,82.2,21.2,21.2,0,0,0,74,103.4m0-49.3a28.2,28.2,0,1,0,28.1,28.1A28.1,28.1,0,0,0,74,54.1Zm0,45.3A17.2,17.2,0,1,1,91.1,82.2,17.1,17.1,0,0,1,74,99.4Z"/><circle class="cls-3" cx="88.1" cy="50.5" r="6.7"/><circle class="cls-3" cx="99.3" cy="61.3" r="3.3"/><text class="cls-4" transform="translate(57.3 90.9)">o<tspan class="cls-5" x="16.9" y="0">x</tspan></text></svg>