<svg width="30" height="30" viewBox="0 0 30 30" fill="none" xmlns="http://www.w3.org/2000/svg">
<path d="M14.9531 7.99217C15.413 7.99682 15.8639 7.8647 16.2485 7.61258C16.6332 7.36046 16.9342 6.99972 17.1135 6.57617C17.2927 6.15262 17.342 5.68536 17.2551 5.23373C17.1682 4.7821 16.9491 4.36647 16.6256 4.03962C16.302 3.71277 15.8886 3.48945 15.4379 3.398C14.9872 3.30655 14.5195 3.35112 14.0941 3.52602C13.6688 3.70093 13.305 3.9983 13.049 4.38036C12.793 4.76243 12.6563 5.21196 12.6563 5.67186C12.6562 6.28321 12.8975 6.86986 13.3275 7.30434C13.7576 7.73882 14.3418 7.986 14.9531 7.99217V7.99217Z" fill="#F28C8C"/>
<path d="M20.1328 15.6563L18.0703 9.28125C18.0098 9.10953 17.8994 8.95979 17.7533 8.85122C17.6071 8.74265 17.4319 8.6802 17.25 8.67188H12.75C12.5681 8.6802 12.3929 8.74265 12.2467 8.85122C12.1006 8.95979 11.9902 9.10953 11.9297 9.28125L9.86718 15.6563C9.83051 15.7417 9.81654 15.8351 9.82663 15.9275C9.83672 16.0199 9.87053 16.1081 9.92478 16.1836C9.97902 16.2591 10.0519 16.3192 10.1362 16.3582C10.2206 16.3973 10.3136 16.4138 10.4062 16.4062H10.7344C10.9195 16.3994 11.0984 16.3379 11.2486 16.2294C11.3987 16.1209 11.5134 15.9704 11.5781 15.7969L12.5156 12.9609V14.4844C12.3631 14.5784 12.2347 14.7068 12.1406 14.8594L10.5937 17.6016C10.5466 17.6824 10.5179 17.7726 10.5098 17.8658C10.5017 17.959 10.5143 18.0529 10.5469 18.1406C10.5876 18.2238 10.6468 18.2965 10.7199 18.3534C10.793 18.4103 10.8781 18.4497 10.9687 18.4688L12.6562 18.8906V25.6875C12.6562 25.9361 12.755 26.1746 12.9308 26.3504C13.1066 26.5262 13.3451 26.625 13.5937 26.625H13.8281C14.0768 26.625 14.3152 26.5262 14.491 26.3504C14.6668 26.1746 14.7656 25.9361 14.7656 25.6875V19.3828H15.3281V25.6875C15.3281 25.9361 15.4269 26.1746 15.6027 26.3504C15.7785 26.5262 16.017 26.625 16.2656 26.625H16.5C16.7486 26.625 16.9871 26.5262 17.1629 26.3504C17.3387 26.1746 17.4375 25.9361 17.4375 25.6875V18.8672L18.9609 18.4688C19.0516 18.4497 19.1367 18.4103 19.2098 18.3534C19.2829 18.2965 19.342 18.2238 19.3828 18.1406C19.4153 18.0529 19.428 17.959 19.4199 17.8658C19.4118 17.7726 19.3831 17.6824 19.3359 17.6016L17.7891 14.8594C17.6885 14.7121 17.5614 14.5849 17.4141 14.4844V12.8906L18.4219 15.8203C18.4902 15.9895 18.6065 16.1351 18.7564 16.2391C18.9062 16.3432 19.0832 16.4013 19.2656 16.4062H19.5937C19.6864 16.4138 19.7794 16.3973 19.8638 16.3582C19.9481 16.3192 20.021 16.2591 20.0752 16.1836C20.1295 16.1081 20.1633 16.0199 20.1734 15.9275C20.1835 15.8351 20.1695 15.7417 20.1328 15.6563Z" fill="#F28C8C"/>
</svg>
