<svg id="Layer_1" data-name="Layer 1" xmlns="http://www.w3.org/2000/svg" viewBox="0 0 128 128"><defs><style>.cls-1{fill:none;}.cls-2{fill:#9e76b4;}.cls-3{font-size:35.32px;fill:#fff;font-family:Roboto-Bold, Roboto;font-weight:700;}.cls-4{letter-spacing:-0.09em;}</style></defs><title>icon</title><path class="cls-1" d="M0,0H128V128H0Z"/><path class="cls-2" d="M79.4,25.6H48.6a11.5,11.5,0,0,0-10.1,5.8L23,58.2a11.5,11.5,0,0,0,0,11.6L38.5,96.6a11.5,11.5,0,0,0,10.1,5.8H79.4a11.5,11.5,0,0,0,10.1-5.8L105,69.8a11.5,11.5,0,0,0,0-11.6L89.5,31.4A11.5,11.5,0,0,0,79.4,25.6Z"/><text class="cls-3" transform="translate(37.1 77)"><tspan class="cls-4">P</tspan><tspan x="19.7" y="0">AI</tspan></text></svg>