<svg id="Layer_1" data-name="Layer 1" xmlns="http://www.w3.org/2000/svg" xmlns:xlink="http://www.w3.org/1999/xlink" viewBox="0 0 128 128"><defs><style>.cls-1{fill:none;}.cls-2{clip-path:url(#clip-path);}.cls-3{fill:#9e76b4;}</style><clipPath id="clip-path"><rect class="cls-1" x="13" y="13.7" width="102" height="98.54"/></clipPath></defs><title>icon</title><rect class="cls-1" width="128" height="128"/><g class="cls-2"><path class="cls-3" d="M89.2,41.4a.9.9,0,0,1-.8-.4,5.3,5.3,0,0,1,.1-1.2,10.7,10.7,0,0,1,2.4-5.4c1.8-1.9,2.8-3.3,2.8-4.9s-1.3-3-3.8-3.1a8.6,8.6,0,0,0-4.1,1.1l-.6-1.6c-.2-.3,0-.7.4-.9a17.7,17.7,0,0,1,5-1.1c4.6,0,6.7,2.5,6.7,5.2s-1.6,4.2-3.5,6.2-2.4,3.4-2.2,5.2v.3a.7.7,0,0,1-.7.6Z"/><path class="cls-3" d="M90.6,23.9a17.7,17.7,0,0,0-5,1.1c-.4.2-.6.6-.4.9l.6,1.6a8.6,8.6,0,0,1,4.1-1.1c2.5.1,3.8,1.3,3.8,3.1s-1,3-2.8,4.9a10.7,10.7,0,0,0-2.4,5.4,5.3,5.3,0,0,0-.1,1.2.9.9,0,0,0,.8.4h1.7a.7.7,0,0,0,.7-.6v-.3c-.2-1.8.5-3.4,2.2-5.2s3.5-3.8,3.5-6.2-2.1-5.2-6.7-5.2Z"/><path class="cls-3" d="M90.9,42.1H89.2A1.4,1.4,0,0,1,87.7,41V39.8c.1-.2.5-3.6,2.6-5.9s2.6-3,2.6-4.4-1.6-2.4-3-2.4a6.6,6.6,0,0,0-3.6,1l-.8.5-1-2.5a1.3,1.3,0,0,1,.8-1.7,19.6,19.6,0,0,1,5.3-1.2c5.1,0,7.4,3,7.4,5.9s-1.6,4.4-3.6,6.6-2.2,3.1-2.1,4.8v.2a1.3,1.3,0,0,1-.4,1A1.8,1.8,0,0,1,90.9,42.1Zm-1.7-1.4h1.6v-.3c-.1-2,.6-3.7,2.5-5.6s3.2-3.7,3.2-5.8-1.5-4.6-5.9-4.6a16.6,16.6,0,0,0-4.7,1.1l.3,1a9.1,9.1,0,0,1,3.7-.8c2.8,0,4.5,1.4,4.5,3.7s-1.1,3.3-3,5.3a10.4,10.4,0,0,0-2.2,5.1Z"/><path class="cls-3" d="M90.6,23.2a19.6,19.6,0,0,0-5.3,1.2,1.3,1.3,0,0,0-.8,1.7l1,2.5.8-.5a6.6,6.6,0,0,1,3.6-1c1.4,0,3,.4,3,2.4s-.9,2.7-2.6,4.4-2.5,5.7-2.6,5.9V41a1.4,1.4,0,0,0,1.5,1.1h1.7a1.8,1.8,0,0,0,1-.4,1.3,1.3,0,0,0,.4-1v-.2c-.1-1.7.5-3.1,2.1-4.8s3.6-4,3.6-6.6-2.3-5.9-7.4-5.9Zm-4.4,3.4-.3-1a16.6,16.6,0,0,1,4.7-1.1c4.4,0,5.9,2.4,5.9,4.6s-1.3,3.7-3.2,5.8-2.6,3.6-2.5,5.6v.3H89.2v-.8a10.4,10.4,0,0,1,2.2-5.1c1.9-2,3-3.5,3-5.3s-1.7-3.7-4.5-3.7a9.1,9.1,0,0,0-3.7.8Z"/><path class="cls-3" d="M87.6,46.4a2.4,2.4,0,0,1,4.8,0,2.4,2.4,0,0,1-4.8,0Z"/><path class="cls-3" d="M90,44.2a2.2,2.2,0,0,0-2.4,2.2,2.4,2.4,0,0,0,4.8,0A2.2,2.2,0,0,0,90,44.2Z"/><path class="cls-3" d="M90,49.2a2.9,2.9,0,1,1,3.1-2.8A2.9,2.9,0,0,1,90,49.2Zm0-4.4a1.6,1.6,0,0,0-1.7,1.6A1.5,1.5,0,0,0,90,47.9a1.4,1.4,0,0,0,1.6-1.5A1.5,1.5,0,0,0,90,44.8Z"/><path class="cls-3" d="M90,43.5a2.9,2.9,0,1,0,3.1,2.9A2.9,2.9,0,0,0,90,43.5Zm0,4.4a1.5,1.5,0,0,1-1.7-1.5A1.6,1.6,0,0,1,90,44.8a1.5,1.5,0,0,1,1.6,1.6A1.4,1.4,0,0,1,90,47.9Z"/><path class="cls-3" d="M31.8,96a2.5,2.5,0,0,1-1.2-.2,65.6,65.6,0,0,1-.2-6.9A3.8,3.8,0,0,1,33,85.7l17.7-3.4h0a7.2,7.2,0,0,0,4.8-4.5L59.4,65a3.7,3.7,0,0,1,3.1-2.4l2.5.2a1.7,1.7,0,0,1,1.4.7,1.9,1.9,0,0,1,.2,1.5l-6,21.4a5.3,5.3,0,0,1-3.4,3.3L33.5,95.9Z"/><path class="cls-3" d="M62.5,65.2h1.4L58.1,85.7a2.8,2.8,0,0,1-1.6,1.6L33,93.4h0a33.7,33.7,0,0,1,0-4.5,1,1,0,0,1,.6-.7l17.5-3.4h.2a9.6,9.6,0,0,0,6.6-6.2l3.9-12.8a1.2,1.2,0,0,1,.7-.5m.1-5.1A6,6,0,0,0,57,64.2L53.1,77a4.9,4.9,0,0,1-3,2.8L32.4,83.2a6.3,6.3,0,0,0-4.5,5.6s-.2,7.7.5,8.5,1.3,1.2,3.4,1.2a9.4,9.4,0,0,0,2.2-.2l23.8-6.1A7.8,7.8,0,0,0,63,87.1l6-21.4a4.1,4.1,0,0,0-3.9-5.4l-2.5-.2Z"/><path class="cls-3" d="M49.8,71A15.2,15.2,0,1,1,65,55.6H62.6a10.9,10.9,0,0,0-10.1,7.4L50.1,71Z"/><path class="cls-3" d="M49.8,43.2a12.7,12.7,0,0,1,12.4,9.7,13.3,13.3,0,0,0-12.1,9.2l-1.9,6.2a12.6,12.6,0,0,1,1.6-25.1m0-5.1a17.7,17.7,0,0,0,0,35.4H52l3-9.8A8.1,8.1,0,0,1,62.6,58h2.7l2,.5a12.7,12.7,0,0,0,.2-2.8A17.7,17.7,0,0,0,49.8,38.1Z"/><path class="cls-3" d="M91.1,16.7A19.7,19.7,0,0,0,71.2,36.2,19,19,0,0,0,76,48.9l-.4.4L71.5,55a1.6,1.6,0,0,0,.5,2.3,1.8,1.8,0,0,0,1,.2,2,2,0,0,0,1.6-.7l3.9-5.5A19.9,19.9,0,0,0,111,36.2,19.8,19.8,0,0,0,91.1,16.7Zm0,35.8a16.3,16.3,0,1,1,16.2-16.3A16.2,16.2,0,0,1,91.1,52.5Z"/><path class="cls-3" d="M91.1,16.7A19.7,19.7,0,0,0,71.2,36.2,19,19,0,0,0,76,48.9l-.4.4L71.5,55a1.6,1.6,0,0,0,.5,2.3,1.8,1.8,0,0,0,1,.2,2,2,0,0,0,1.6-.7l3.9-5.5A19.9,19.9,0,0,0,111,36.2,19.8,19.8,0,0,0,91.1,16.7Zm0,35.8a16.3,16.3,0,1,1,16.2-16.3A16.2,16.2,0,0,1,91.1,52.5Z"/><path class="cls-3" d="M39.3,185.9a5.6,5.6,0,0,1-5.6-5.6V103.1l1.2-.2H35l24-6.2a12.6,12.6,0,0,0,7-5.1v33.7l10.1-16.5a6.1,6.1,0,0,0-.2-6.5L67.1,89.6c.1-.4.3-.8.4-1.3l1.9-6.6.8.8,14,19.5a4.5,4.5,0,0,1,.2,4.5L73.1,126.7a5.2,5.2,0,0,1-4.1,2.4H66v51.2a5.7,5.7,0,0,1-5.7,5.6h-.6a5.6,5.6,0,0,1-5.6-5.6V135H45.6v45.3a5.7,5.7,0,0,1-5.7,5.6Z"/><path class="cls-3" d="M70.5,87.2l11.6,16.3a1.9,1.9,0,0,1,.1,1.8L70.9,125.4a3.3,3.3,0,0,1-1.9,1.2h-.8l4.6-7.6,5.5-8.9a8.9,8.9,0,0,0-.3-9.2l-5.3-7.7-2.8-4V89l.6-1.8M63.4,97.5v29.1h0v53.7a3.1,3.1,0,0,1-3.1,3.1h-.6a3.1,3.1,0,0,1-3.1-3.1V132.5H43v47.8a3.1,3.1,0,0,1-3.1,3.1h-.6a3.1,3.1,0,0,1-3.1-3.1V105.2l23.4-6a18.4,18.4,0,0,0,3.8-1.7M67.8,78l-2.7,9.7a10.2,10.2,0,0,1-6.8,6.6l-23.8,6.1a13.7,13.7,0,0,1-2.7.2h-.6v79.7a8.2,8.2,0,0,0,8.1,8.2h.6a8.2,8.2,0,0,0,8.2-8.2V137.5h3.5v42.8a8.2,8.2,0,0,0,8.1,8.2h.6a8.2,8.2,0,0,0,8.2-8.2V131.6H69a7.8,7.8,0,0,0,6.3-3.7l11.4-20.1a7.6,7.6,0,0,0-.4-7.3L72.2,81a8.7,8.7,0,0,0-4.4-3Zm.7,38.4V96.1l5.4,7.7a4,4,0,0,1,.1,3.7l-5.5,8.9Z"/></g></svg>