<svg id="Layer_1" data-name="Layer 1" xmlns="http://www.w3.org/2000/svg" viewBox="0 0 128 128"><defs><style>.cls-1{fill:#ffca28;}.cls-2{fill:#6d4c41;}.cls-3{fill:#03a9f4;}</style></defs><title>icon</title><circle class="cls-1" cx="64" cy="64" r="48"/><path class="cls-2" d="M82,70A12,12,0,0,1,70,58a3,3,0,0,1,6,0,6,6,0,0,0,12,0,3,3,0,0,1,6,0A12,12,0,0,1,82,70Z"/><path class="cls-2" d="M46,70A12,12,0,0,1,34,58a3,3,0,0,1,6,0,6,6,0,0,0,12,0,3,3,0,0,1,6,0A12,12,0,0,1,46,70Z"/><path class="cls-2" d="M83.1,95.9A2.9,2.9,0,0,1,81,95c-9.1-9-24.9-9-34,0a3,3,0,1,1-4.2-4.2,29.9,29.9,0,0,1,42.4,0,3,3,0,0,1-2.1,5.1Z"/><path class="cls-3" d="M39.6,17.5a3.1,3.1,0,0,0-5.2,0C32.8,20.3,25,34.5,25,40a12,12,0,0,0,24,0C49,34.5,41.2,20.3,39.6,17.5Z"/></svg>