<svg id="Layer_1" data-name="Layer 1" xmlns="http://www.w3.org/2000/svg" viewBox="0 0 128 128"><defs><style>.cls-1{fill:#ffc107;}.cls-2{fill:#fff;}.cls-3{fill:#dd9f07;}.cls-4{fill:none;}</style></defs><title>icon</title><path class="cls-1" d="M104.8,89.9,66.6,114.8a4.9,4.9,0,0,1-5.2,0L23.2,89.9a4.7,4.7,0,0,1-2.2-4V29.3a4.8,4.8,0,0,1,4.7-4.8h76.6a4.8,4.8,0,0,1,4.7,4.8V85.9A4.7,4.7,0,0,1,104.8,89.9Z"/><path class="cls-2" d="M91.1,56.9A2.8,2.8,0,0,0,88.6,55L72.9,53.5,66.7,39a2.9,2.9,0,0,0-5.4,0L55.1,53.5,39.4,55a2.8,2.8,0,0,0-2.5,1.9,2.9,2.9,0,0,0,.8,3.1L49.6,70.4,46.1,85.9a3,3,0,0,0,1.2,3,3.3,3.3,0,0,0,1.6.5,2.4,2.4,0,0,0,1.5-.4L64,80.9,77.6,89a2.7,2.7,0,0,0,3.1-.1,3,3,0,0,0,1.2-3L78.4,70.4,90.3,60A2.9,2.9,0,0,0,91.1,56.9Z"/><rect class="cls-3" x="15.9" y="12.5" width="96.3" height="18.07" rx="4.2" ry="4.2"/><rect class="cls-4" width="128" height="128"/></svg>