<svg id="Layer_1" data-name="Layer 1" xmlns="http://www.w3.org/2000/svg" viewBox="0 0 128 128"><defs><style>.cls-1{fill:#9e76b4;}</style></defs><title>icon</title><path class="cls-1" d="M64,79.5a2,2,0,0,1-1.4-.6l-22-22a1.8,1.8,0,0,1-.4-2.2A2,2,0,0,1,42,53.5H54v-26a4,4,0,0,1,4-4H70a4,4,0,0,1,4,4v26H86a2,2,0,0,1,1.8,1.2,1.8,1.8,0,0,1-.4,2.2l-22,22A2,2,0,0,1,64,79.5Z"/><path class="cls-1" d="M106,103.5H22a6,6,0,0,1-6-6v-4a6,6,0,0,1,6-6h84a6,6,0,0,1,6,6v4A6,6,0,0,1,106,103.5Zm-84-12a2,2,0,0,0-2,2v4a2,2,0,0,0,2,2h84a2,2,0,0,0,2-2v-4a2,2,0,0,0-2-2Z"/><path class="cls-1" d="M106,87.5a6,6,0,0,1,6,6v4a6,6,0,0,1-6,6H22a6,6,0,0,1-6-6v-4a6,6,0,0,1,6-6h84m-84,12h84a2,2,0,0,0,2-2v-4a2,2,0,0,0-2-2H22a2,2,0,0,0-2,2v4a2,2,0,0,0,2,2m84-13H22a7,7,0,0,0-7,7v4a7,7,0,0,0,7,7h84a7,7,0,0,0,7-7v-4a7,7,0,0,0-7-7Zm-84,12a.9.9,0,0,1-1-1v-4a.9.9,0,0,1,1-1h84a.9.9,0,0,1,1,1v4a.9.9,0,0,1-1,1Z"/></svg>