<svg id="Layer_1" data-name="Layer 1" xmlns="http://www.w3.org/2000/svg" viewBox="0 0 128 128"><defs><style>.cls-1{fill:none;}.cls-2{fill:#b1b1b2;}</style></defs><title>icon</title><rect class="cls-1" x="0.3" y="0.3" width="127.3" height="127.32"/><path class="cls-2" d="M80.3,110.4a6.9,6.9,0,0,1-6.6-4.6L65.1,82.2l-4.4,8.4a13.9,13.9,0,0,1-4,4.7l-12.2,9.1a4.8,4.8,0,0,1-3,1.1,5,5,0,0,1-4.5-3l-1.3-2.7a6.2,6.2,0,0,1,2-7.4l9.2-6.6A7.5,7.5,0,0,0,49,83.2l3.2-7.1H52l-1.5.2h-.4a5.3,5.3,0,0,1-5.1-4L41.2,55.8a6.4,6.4,0,0,1,2.1-6.1l9.8-7.5.3-.2a4.8,4.8,0,0,1,2.8-1l14.2-.6h.1a5,5,0,0,1,4.3,2.4,5,5,0,0,1,.5,1.3l3.4,11.4a3.9,3.9,0,0,0,.8,1l10.8,6.3a4.9,4.9,0,0,1,1.9,6.6l-.7,1.2a4.9,4.9,0,0,1-4.3,2.6,5.9,5.9,0,0,1-2.3-.5l-8.5-4.5.2,4h.1l10.5,29a6.7,6.7,0,0,1-.3,5.2,6.5,6.5,0,0,1-4,3.4l-.6.2A6.4,6.4,0,0,1,80.3,110.4ZM65.6,75.6A2.1,2.1,0,0,1,67.5,77l10,27.5a3,3,0,0,0,3.6,1.8l.6-.2a2.8,2.8,0,0,0,1.6-1.4,2.7,2.7,0,0,0,.1-2l-10.5-29v-.2a2.4,2.4,0,0,1-.2-.8l-.4-7.8a2.1,2.1,0,0,1,1-1.7,1.8,1.8,0,0,1,2-.1l11.6,6a1,1,0,0,0,1.2-.4l.7-1.2a1.1,1.1,0,0,0-.4-1.3h0L77.5,60a7,7,0,0,1-2.7-3.4L71.5,45.2c0-.1-.1-.1-.1-.2s-.1-.1-.1-.2a1.2,1.2,0,0,0-.8-.4L56.3,45l-.5.2-.2.2h-.1l-9.7,7.5a2.4,2.4,0,0,0-.7,2l3.8,16.5a1.4,1.4,0,0,0,1.2.9l1.5-.2.5-.2a1.3,1.3,0,0,0,.1-.6L49.4,58.6a4.5,4.5,0,0,1,1.5-4.1l1.8-1.4a2,2,0,0,1,2-.2,1.9,1.9,0,0,1,1.2,1.7l.9,20.5h0a2.9,2.9,0,0,1-.2.9l-3.9,8.8A13.6,13.6,0,0,1,49.3,89L40,95.7a2,2,0,0,0-.6,2.4l1.3,2.7a.9.9,0,0,0,1.4.4l12.2-9.1a11.5,11.5,0,0,0,2.9-3.3L63.3,77h0a2.3,2.3,0,0,1,1.8-1.3h.5Z"/><path class="cls-2" d="M61.8,42.3A12.3,12.3,0,0,1,49.5,30.5a12.1,12.1,0,0,1,3.2-8.9,12.2,12.2,0,0,1,8.6-4A12.5,12.5,0,0,1,74.2,29.4a12.2,12.2,0,0,1-3.3,8.9,12,12,0,0,1-8.5,4Zm0-20.7h-.3a8.4,8.4,0,0,0-5.8,2.7,8.4,8.4,0,0,0-2.2,6,8.3,8.3,0,0,0,8.7,8A8.6,8.6,0,0,0,68,35.6a8.3,8.3,0,0,0,2.2-6A8.4,8.4,0,0,0,61.8,21.6Z"/></svg>