<svg id="Layer_1" data-name="Layer 1" xmlns="http://www.w3.org/2000/svg" viewBox="0 0 128 128"><defs><style>.cls-1{fill:#f57c00;}.cls-2{fill:none;}.cls-3{fill:#fff;}</style></defs><title>icon</title><circle class="cls-1" cx="64" cy="64" r="48"/><rect class="cls-2" x="32" y="32" width="64" height="64"/><path class="cls-3" d="M81,68.1v-.4c-.5-6.7-3.6-10.9-6.4-14.6s-4.5-6-4.5-10a1.8,1.8,0,0,0-.8-1.5,1.7,1.7,0,0,0-1.7.2,23.6,23.6,0,0,0-8.8,12.7,37.9,37.9,0,0,0-.9,8.5c-2.6-1.3-3.3-5.6-3.3-5.6a1.4,1.4,0,0,0-.8-1.2,1.7,1.7,0,0,0-1.4,0c-.2.1-5.2,2.6-5.4,12.3a3.1,3.1,0,0,0-.1,1,17.1,17.1,0,0,0,34.2,0C81.1,69,81,68.5,81,68.1ZM55.6,76.9a17.9,17.9,0,0,1,.2-2.4,6.4,6.4,0,0,0,4.9,2.3A2.9,2.9,0,0,0,63.5,74a27.6,27.6,0,0,1,.6-7,13.8,13.8,0,0,1,1.7-4,35.2,35.2,0,0,0,2.7,4.3c1.8,2.6,3.6,5.1,3.9,9.4v.8c0,5-3.8,9-8.4,9s-8.4-4-8.4-9.1Z"/><rect class="cls-2" width="128" height="128"/></svg>