<svg id="Layer_1" data-name="Layer 1" xmlns="http://www.w3.org/2000/svg" viewBox="0 0 128 128"><defs><style>.cls-1{fill:#f0f0f0;}.cls-2{fill:none;}.cls-3{fill:#9e76b4;}</style></defs><title>icon</title><circle class="cls-1" cx="64" cy="64" r="48"/><rect class="cls-2" x="32" y="32" width="64" height="64"/><path class="cls-3" d="M74.8,68.5l-4.6-5.1a2.2,2.2,0,0,1-.6-1.3V56.8h0A1.5,1.5,0,0,0,68,55.2H61.8a2.4,2.4,0,0,0-1.9,1.2l-6,12.7a2.4,2.4,0,0,0,0,1.2,1.5,1.5,0,0,0,.8.8l.8.4h.6a1.6,1.6,0,0,0,1.4-.8l2.8-5.6v5.6h0L55.5,85.8a2.3,2.3,0,0,0,.2,1.8,2.4,2.4,0,0,0,1.4,1.2h1a2.5,2.5,0,0,0,2.4-1.7L65,73.3l1.5,3.8a15.8,15.8,0,0,1,.9,3.6l.8,7.1a2.1,2.1,0,0,0,2.1,2h.9a2.6,2.6,0,0,0,2-2.9l-1.1-8.6A13.4,13.4,0,0,0,71,74.2l-1.5-3.5h0V68.3l2.7,2.8a1.3,1.3,0,0,0,1,.4,1.2,1.2,0,0,0,1-.4l.5-.5A1.5,1.5,0,0,0,74.8,68.5Z"/><path class="cls-3" d="M65.3,54a4.9,4.9,0,0,0,4.9-4.9,4.9,4.9,0,0,0-9.8,0A4.9,4.9,0,0,0,65.3,54Z"/><rect class="cls-2" width="128" height="128"/></svg>