<svg id="Layer_1" data-name="Layer 1" xmlns="http://www.w3.org/2000/svg" viewBox="0 0 128 128"><defs><style>.cls-1{fill:none;stroke:#093c66;stroke-linejoin:round;stroke-width:3.72px;}.cls-2{fill:#093c66;}</style></defs><title>icon</title><path class="cls-1" d="M73.9,80.6A25.5,25.5,0,0,1,62.6,32.3l-2.9-.2a31.9,31.9,0,1,0,29.9,43,25.6,25.6,0,0,1-15.7,5.5Z"/><path class="cls-2" d="M74,56.8h6.6a2.4,2.4,0,1,0,0-4.8H78.5l3.8-5.5a2.5,2.5,0,0,0,.2-2.5,2.7,2.7,0,0,0-2.1-1.2H74.1a2.4,2.4,0,1,0,0,4.7h1.7L72,53.1a2.4,2.4,0,0,0,2,3.7Z"/><path class="cls-2" d="M88.9,49.4h8.9a2.3,2.3,0,0,0,2.4-2.3,2.4,2.4,0,0,0-2.4-2.4H93.5L99.4,36a2.3,2.3,0,0,0,.2-2.4,2.6,2.6,0,0,0-2.1-1.3H89.2a2.4,2.4,0,0,0,0,4.8h3.7L87,45.7A2.3,2.3,0,0,0,88.9,49.4Z"/></svg>