<svg id="Layer_1" data-name="Layer 1" xmlns="http://www.w3.org/2000/svg" viewBox="0 0 128 128"><defs><style>.cls-1{fill:#ffca28;}.cls-2{fill:#6d4c41;}.cls-3{fill:#fafafa;}</style></defs><title>icon</title><circle class="cls-1" cx="64" cy="64" r="48"/><path class="cls-2" d="M90.9,55.1a3.1,3.1,0,0,1-3-3,6,6,0,0,0-6-6,6,6,0,0,0-6,6,3,3,0,0,1-3,3,3.1,3.1,0,0,1-3-3,12,12,0,1,1,24,0A3,3,0,0,1,90.9,55.1Z"/><path class="cls-2" d="M54.9,55.1a3.1,3.1,0,0,1-3-3,6,6,0,0,0-12,0,3,3,0,0,1-3,3,3.1,3.1,0,0,1-3-3,12,12,0,0,1,24,0A3,3,0,0,1,54.9,55.1Z"/><path class="cls-3" d="M98.1,71.3a3,3,0,0,0-2.4-1.2H32.2a3.2,3.2,0,0,0-2.4,1.1,3.3,3.3,0,0,0-.5,2.7,36,36,0,0,0,69.3,0A3.4,3.4,0,0,0,98.1,71.3Z"/></svg>