<svg id="Layer_1" data-name="Layer 1" xmlns="http://www.w3.org/2000/svg" viewBox="0 0 128 128"><defs><style>.cls-1{fill:#f3f4f4;}.cls-2{fill:#e32129;}.cls-3{fill:#2a388e;}</style></defs><title>icon</title><path class="cls-1" d="M107.4,93.6H20.6A1.6,1.6,0,0,1,19,92V36a1.6,1.6,0,0,1,1.6-1.6h86.8A1.6,1.6,0,0,1,109,36V92A1.6,1.6,0,0,1,107.4,93.6Z"/><path class="cls-2" d="M107.4,93.6H20.6A1.6,1.6,0,0,1,19,92V84.3h90V92A1.6,1.6,0,0,1,107.4,93.6Z"/><path class="cls-2" d="M20.6,34.4h86.8A1.6,1.6,0,0,1,109,36v7.7H19V36A1.6,1.6,0,0,1,20.6,34.4Z"/><rect class="cls-3" x="19" y="53.1" width="90" height="21.81"/></svg>