<svg id="Layer_1" data-name="Layer 1" xmlns="http://www.w3.org/2000/svg" viewBox="0 0 128 128"><defs><style>.cls-1{fill:#ff2929;}.cls-2,.cls-3{fill:#fff;}.cls-3,.cls-4{stroke:#ff2929;stroke-width:3px;}.cls-3{stroke-miterlimit:10;}.cls-4{fill:none;stroke-linecap:round;stroke-linejoin:round;}</style></defs><title>icon</title><path class="cls-1" d="M79.5,63.4C73.7,46.2,58.4,23.1,53.6,23.1s-20.2,23.3-26,40.5a28.8,28.8,0,0,0-2.2,11,28.3,28.3,0,1,0,56.5,0A27.8,27.8,0,0,0,79.5,63.4Z"/><circle class="cls-2" cx="74" cy="82.2" r="24.1"/><path class="cls-2" d="M74,59.6A22.7,22.7,0,1,1,51.4,82.2,22.6,22.6,0,0,1,74,59.6m0-3A25.7,25.7,0,1,0,99.6,82.2,25.6,25.6,0,0,0,74,56.6Z"/><path class="cls-1" d="M74,107.9A25.7,25.7,0,1,1,99.6,82.2,25.6,25.6,0,0,1,74,107.9Zm0-45.3A19.7,19.7,0,1,0,93.6,82.2,19.6,19.6,0,0,0,74,62.6Z"/><path class="cls-2" d="M74,58.1A24.2,24.2,0,1,1,49.9,82.2,24.1,24.1,0,0,1,74,58.1m0,45.3A21.2,21.2,0,1,0,52.9,82.2,21.2,21.2,0,0,0,74,103.4m0-48.3a27.2,27.2,0,1,0,27.1,27.1A27.1,27.1,0,0,0,74,55.1Zm0,45.3A18.2,18.2,0,1,1,92.1,82.2,18.2,18.2,0,0,1,74,100.4Z"/><circle class="cls-3" cx="74" cy="82.2" r="2.8"/><line class="cls-4" x1="83.8" y1="70.4" x2="75.9" y2="80.2"/></svg>