<svg id="Layer_1" data-name="Layer 1" xmlns="http://www.w3.org/2000/svg" viewBox="0 0 128 128"><defs><style>.cls-1{fill:#f57c00;}</style></defs><title>icon</title><path class="cls-1" d="M35.1,102.1H31.9a4.7,4.7,0,0,1-4.6-4.7V60.9a4.7,4.7,0,0,1,4.6-4.7H45.5a4.8,4.8,0,0,1,4.7,4.4l5.4,20.1L87,83.2a6.4,6.4,0,0,1,6.4,6.5v1.8A6.5,6.5,0,0,1,86.9,98H39.7A4.6,4.6,0,0,1,35.1,102.1ZM31.9,59.9a1,1,0,0,0-.9,1V97.4a.9.9,0,0,0,.9,1h3.2a.9.9,0,0,0,.9-1V94.3H86.9a2.8,2.8,0,0,0,2.8-2.8V89.7a2.7,2.7,0,0,0-2.8-2.8h-.1L52.7,84.3,46.4,61.1v-.2a1,1,0,0,0-.9-1H31.9Zm3,0Zm.5-3.7h0Z"/><path class="cls-1" d="M41.5,56A12.9,12.9,0,1,1,54.4,43.1,12.8,12.8,0,0,1,41.5,56Zm0-22.1a9.2,9.2,0,1,0,9.2,9.2A9.2,9.2,0,0,0,41.5,33.9Z"/><rect class="cls-1" x="36" y="76" width="3.7" height="21"/><path class="cls-1" d="M80.5,61.1c-11.4,0-20.9-6-23.2-9.7a3,3,0,0,1-.2-3.3c.7-1,1.9-1.3,3.6-1A5.1,5.1,0,0,0,66.9,43v-.2c3.9-10.4,8.8-14.5,17.4-14.5a16.3,16.3,0,0,1,16.3,16.3c0,8.3-6.6,15-16,16.2h0A29.7,29.7,0,0,1,80.5,61.1ZM61.9,51a30.8,30.8,0,0,0,22.3,6.2h0C90.6,56.3,97,52.1,97,44.6A12.6,12.6,0,0,0,84.4,32c-7,0-10.5,3.1-13.9,12C69.8,46.7,67.3,51.1,61.9,51Zm-2.4-.3Z"/><path class="cls-1" d="M75.3,53.3h4.1a1.5,1.5,0,0,0,1.5-1.4,1.5,1.5,0,0,0-1.5-1.5H78.1l2.4-3.5a1.6,1.6,0,0,0,.1-1.5,1.6,1.6,0,0,0-1.3-.8H75.4a1.5,1.5,0,0,0,0,3h1.1L74.1,51a1.4,1.4,0,0,0,1.2,2.3Z"/><path class="cls-1" d="M84.6,48.8h5.5a1.5,1.5,0,0,0,0-3H87.4l3.7-5.3a1.8,1.8,0,0,0,.1-1.6,1.6,1.6,0,0,0-1.3-.8H84.7a1.5,1.5,0,0,0,0,3h2.4l-3.7,5.3A1.5,1.5,0,0,0,84.6,48.8Z"/></svg>