<svg id="Layer_1" data-name="Layer 1" xmlns="http://www.w3.org/2000/svg" viewBox="0 0 128 128"><defs><style>.cls-1{fill:#2a388e;}.cls-2{fill:#f4f5f5;}.cls-3{fill:#d1222f;}</style></defs><title>icon</title><path class="cls-1" d="M107.4,93.5H20.6A1.6,1.6,0,0,1,19,91.9V36.1a1.6,1.6,0,0,1,1.6-1.6h86.8a1.6,1.6,0,0,1,1.6,1.6V91.9A1.6,1.6,0,0,1,107.4,93.5Z"/><path class="cls-2" d="M109,36.1a1.6,1.6,0,0,0-1.6-1.6h-6.9L71.8,53.4V34.5H56.2V53.4L27.5,34.5H20.6A1.6,1.6,0,0,0,19,36.1v4L43.7,56.2H19V71.8H43.7L19,87.9v4a1.6,1.6,0,0,0,1.6,1.6h6.9L56.2,74.6V93.5H71.8V74.6l28.7,18.9h6.9a1.6,1.6,0,0,0,1.6-1.6v-4L84.3,71.8H109V56.2H84.3L109,40.1Z"/><polygon class="cls-3" points="109 59.3 68.7 59.3 68.7 34.5 59.3 34.5 59.3 59.3 19 59.3 19 68.7 59.3 68.7 59.3 93.5 68.7 93.5 68.7 68.7 109 68.7 109 59.3"/><path class="cls-3" d="M50.5,71.8,19,92.1a1.7,1.7,0,0,0,1.6,1.4h2.1L56.2,71.8Z"/><path class="cls-3" d="M79.9,71.8H74.2l33.4,21.7a1.6,1.6,0,0,0,1.4-1.6V90.7Z"/><path class="cls-3" d="M19,37.8,47.4,56.2h5.7L19.9,34.7a1.5,1.5,0,0,0-.9,1.4Z"/><path class="cls-3" d="M77.5,56.2l31.4-20.4a1.5,1.5,0,0,0-1.5-1.3h-2.2L71.8,56.2Z"/></svg>