<svg id="Layer_1" data-name="Layer 1" xmlns="http://www.w3.org/2000/svg" viewBox="0 0 128 128"><defs><style>.cls-1{fill:none;}.cls-2{fill:#304ffe;}</style></defs><title>icon</title><path class="cls-1" d="M0,0H128V128H0Z"/><path class="cls-2" d="M56.1,19.2A10.5,10.5,0,1,0,66.6,29.7,10.5,10.5,0,0,0,56.1,19.2Zm0,15.8a5.2,5.2,0,0,1-5.2-5.3,5.2,5.2,0,0,1,5.2-5.2,5.2,5.2,0,0,1,5.3,5.2A5.3,5.3,0,0,1,56.1,35Z"/><path class="cls-2" d="M90.4,19.2a18.4,18.4,0,1,0,18.4,18.4A18.4,18.4,0,0,0,90.4,19.2Zm0,31.5a13.1,13.1,0,1,1,13.1-13.1A13.1,13.1,0,0,1,90.4,50.7Z"/><path class="cls-2" d="M95.7,35H93V32.3a2.6,2.6,0,0,0-2.6-2.6,2.6,2.6,0,0,0-2.6,2.6v5.3a2.6,2.6,0,0,0,2.6,2.6h5.3a2.6,2.6,0,0,0,2.6-2.6A2.6,2.6,0,0,0,95.7,35Z"/><path class="cls-2" d="M79.9,66.6H66.6V50.7a10.5,10.5,0,1,0-21,0V74.5a7.5,7.5,0,0,0,.5,2.6H39.2s-2.8-22.3-4.3-34.5A7.7,7.7,0,0,0,27.1,35a7.8,7.8,0,0,0-7.9,7.8v.3l5.3,42.1a7.7,7.7,0,0,0,5.2,7.2v13.8a2.7,2.7,0,0,0,5.3,0V92.9H56.1v13.3a2.7,2.7,0,0,0,5.3,0V92.4A7.9,7.9,0,0,0,66.6,85a7.5,7.5,0,0,0-.4-2.6H72v18.5a7.9,7.9,0,1,0,15.8,0V74.5A7.9,7.9,0,0,0,79.9,66.6Zm2.6,34.3a2.5,2.5,0,0,1-2.6,2.6,2.6,2.6,0,0,1-2.6-2.6V79.8a2.7,2.7,0,0,0-2.6-2.7H53.5a2.6,2.6,0,0,1-2.6-2.6V50.7a5.2,5.2,0,0,1,5.2-5.2,5.2,5.2,0,0,1,5.3,5.2V69.3A2.6,2.6,0,0,0,64,71.9H79.9a2.6,2.6,0,0,1,2.6,2.6Z"/></svg>