<svg id="Layer_1" data-name="Layer 1" xmlns="http://www.w3.org/2000/svg" viewBox="0 0 128 128"><defs><style>.cls-1{fill:none;}.cls-2{fill:#d32f2f;}</style></defs><title>icon</title><path class="cls-1" d="M0,0H128V128H0Z"/><path class="cls-2" d="M89.3,76.5H77.4A3.9,3.9,0,0,1,74,74.1L70.2,60.8l-3.4,9.9a3.5,3.5,0,0,1-6.2.7l-3.4-5.5-4.1,8.5-6.1-3,6.8-13.7c1-2.4,4.4-2.4,5.8-.3l3.1,4.4,4.8-14c1-3.1,5.4-2.7,6.5,0l6.1,21.9H95.9a61.8,61.8,0,0,0,3.7-6.1c5.3-11.1,3-22.8-5.8-29.4-6.6-4.5-18-6.2-29.8,3.6-11.4-10.1-23.2-8.5-29.7-3.6-8.8,6.6-11.4,18.6-5.5,29.4,7.8,15.7,32.6,33,33.6,33.7a3.8,3.8,0,0,0,3.6,0A147.9,147.9,0,0,0,82.9,83.7h18.3V76.5H89.3Z"/></svg>