<svg id="Layer_1" data-name="Layer 1" xmlns="http://www.w3.org/2000/svg" viewBox="0 0 128 128"><defs><style>.cls-1{fill:#bda3ce;}.cls-2{fill:#fff;}.cls-3{fill:none;}</style></defs><title>icon</title><circle class="cls-1" cx="64" cy="64" r="48"/><path class="cls-2" d="M51,69.6l8.9-2.2c.3-.1.6.1.7.5l.8,5.4a4.9,4.9,0,0,1-3.5,5.5,4.7,4.7,0,0,1-5.6-3l-1.7-5.5a.6.6,0,0,1,.4-.7Z"/><path class="cls-2" d="M59,63.5,49.9,66a.5.5,0,0,1-.6-.3c-2.6-6.5-4.7-9.7-4.4-15.1s2.6-9.3,7.2-11,6.8,1,8.1,4.4.2,9-.5,13.4a23.1,23.1,0,0,0-.3,3.7V63c0,.2-.1.5-.4.5Z"/><path class="cls-2" d="M68.1,73.3,77,76.4a.6.6,0,0,0,.7-.2c3-6.3,5.4-9.4,5.4-14.8s-2-9.5-6.3-11.5-6.9.5-8.4,3.8-.9,9-.5,13.5a22.8,22.8,0,0,1,0,3.7c0,.2-.1,1.2-.2,1.8a.7.7,0,0,0,.4.6Z"/><path class="cls-2" d="M75.7,79.9,67,77.1a.6.6,0,0,0-.7.4l-1.2,5.4a4.7,4.7,0,0,0,3,5.7A4.8,4.8,0,0,0,74,86.1l2-5.4a.6.6,0,0,0-.3-.8Z"/><rect class="cls-3" x="32" y="32" width="64" height="64"/><rect class="cls-3" width="128" height="128"/></svg>