<svg id="Layer_1" data-name="Layer 1" xmlns="http://www.w3.org/2000/svg" viewBox="0 0 128 128"><defs><style>.cls-1{fill:none;}.cls-2{fill:#787878;}</style></defs><title>icon</title><path class="cls-1"  d="M0,0H128V128H0Z"/><path class="cls-2" style="fill:#000000;" d="M102.7,86.2A3.2,3.2,0,0,0,106,83V45.1A13.2,13.2,0,0,0,92.9,31.9H35.1A13.2,13.2,0,0,0,22,45.1V82.9A13.2,13.2,0,0,0,35.1,96.1H92.9A13.2,13.2,0,0,0,106,82.9a3.3,3.3,0,0,0-6.6,0,6.5,6.5,0,0,1-6.5,6.6H35.1a6.5,6.5,0,0,1-6.5-6.6V45.7L57.1,68.4a12.9,12.9,0,0,0,13.8,0L99.4,45.7V83A3.2,3.2,0,0,0,102.7,86.2ZM67.5,62.8a6.4,6.4,0,0,1-7,0L31.3,39.7a6.4,6.4,0,0,1,3.8-1.2H92.9a6.4,6.4,0,0,1,3.8,1.2Z"/></svg>