<svg id="Layer_1" data-name="Layer 1" xmlns="http://www.w3.org/2000/svg" viewBox="0 0 128 128"><defs><style>.cls-1{fill:none;}.cls-2{fill:#9e76b4;}</style></defs><title>icon</title><rect class="cls-1" width="128" height="128"/><path class="cls-2" d="M113.5,86.6a16.6,16.6,0,0,0-7.8-10.2l-1.3-.6a40.9,40.9,0,0,0-7.1-28.4,40,40,0,0,0-16.8-14v-.6a16.8,16.8,0,1,0-33.6,0v.6A41.3,41.3,0,0,0,22.7,70.9a40.3,40.3,0,0,0,.3,4.9l-1.3.6a16.6,16.6,0,0,0-7.8,10.2,16.4,16.4,0,0,0,1.7,12.8,16.1,16.1,0,0,0,10.2,7.8,15.9,15.9,0,0,0,4.3.6,16.5,16.5,0,0,0,8.4-2.2l1.6-1.1a41.3,41.3,0,0,0,47.2,0l1.6,1.1a16.5,16.5,0,0,0,8.4,2.2,15.9,15.9,0,0,0,4.3-.6,16.1,16.1,0,0,0,10.2-7.8A16.4,16.4,0,0,0,113.5,86.6ZM63.7,22A10.9,10.9,0,1,1,52.9,32.8,10.8,10.8,0,0,1,63.7,22ZM40.6,93.8a10.9,10.9,0,0,1-13.3,7.7,10.8,10.8,0,0,1-2.6-19.9,10.4,10.4,0,0,1,5.4-1.4,13.3,13.3,0,0,1,2.8.3,10.9,10.9,0,0,1,7.7,13.3ZM81,95.3a20.6,20.6,0,0,0,2.1,4.8,35.3,35.3,0,0,1-38.8,0,20.6,20.6,0,0,0,2.1-4.8,17.1,17.1,0,0,0-1.7-12.7,16.6,16.6,0,0,0-10.2-7.8,18.5,18.5,0,0,0-5.7-.6c-.1-1.1-.2-2.2-.2-3.3A35.3,35.3,0,0,1,48.2,39.4a16.9,16.9,0,0,0,31,0A35.3,35.3,0,0,1,98.8,70.9c0,1.1-.1,2.2-.2,3.3a18.5,18.5,0,0,0-5.7.6,16.6,16.6,0,0,0-10.2,7.8A17.1,17.1,0,0,0,81,95.3Zm25.7,1.1A10.8,10.8,0,1,1,94.5,80.5a13.3,13.3,0,0,1,2.8-.3,10.4,10.4,0,0,1,5.4,1.4,10.8,10.8,0,0,1,4,14.8Z"/></svg>