<svg id="Layer_1" data-name="Layer 1" xmlns="http://www.w3.org/2000/svg" viewBox="0 0 128 128"><defs><style>.cls-1{fill:#359bd3;}.cls-2{fill:none;}.cls-3{fill:#fff;}</style></defs><title>icon</title><circle class="cls-1" cx="64" cy="64" r="48"/><rect class="cls-2" x="32" y="32" width="64" height="64"/><rect class="cls-2" width="128" height="128"/><rect class="cls-2" x="32" y="32" width="64" height="64"/><path class="cls-3" d="M43.9,40l.3,2.5v1.6l4.1,38.5a6.1,6.1,0,0,0,6,5.4H75.6a6.1,6.1,0,0,0,6-5.4l4.1-38.5V42.5l.3-2.5ZM78.5,82.2a3,3,0,0,1-2.9,2.7H54.4a3,3,0,0,1-2.9-2.7L48.2,50.6H81.9Z"/><circle class="cls-3" cx="71.9" cy="61.6" r="2.9"/><circle class="cls-3" cx="63.4" cy="74.4" r="2.4"/></svg>