<svg id="Layer_1" data-name="Layer 1" xmlns="http://www.w3.org/2000/svg" viewBox="0 0 128 128"><defs><style>.cls-1{fill:none;}.cls-2{fill:#b1b1b2;}</style></defs><title>icon</title><rect class="cls-1" x="0.3" y="0.3" width="127.3" height="127.32"/><path class="cls-2" d="M108.9,95.4l-21-13.9a37,37,0,0,0,3.8-25.2,37.4,37.4,0,1,0-29.3,44.1A37.1,37.1,0,0,0,84.1,87.2l21,13.9a2.8,2.8,0,0,0,2.5.5,3,3,0,0,0,2.2-1.4A3.4,3.4,0,0,0,108.9,95.4ZM25.1,69.8A30.5,30.5,0,1,1,61,93.6,30.6,30.6,0,0,1,25.1,69.8Z"/><polygon class="cls-2" points="43.6 57.8 68.7 36.7 64 68.6 40.7 91.3 43.6 57.8"/></svg>