<svg id="Layer_1" data-name="Layer 1" xmlns="http://www.w3.org/2000/svg" viewBox="0 0 128 128"><defs><style>.cls-1{stroke:#000;stroke-miterlimit:10;}</style></defs><title>icon</title><path class="cls-1" d="M109.2,99.3h-4.3V45.1a6.5,6.5,0,0,0-6.5-6.5h-11a6.5,6.5,0,0,0-6.5,6.5V99.3H76V29.6a6.5,6.5,0,0,0-6.5-6.5h-11A6.5,6.5,0,0,0,52,29.6V99.3H47.2V60.1a6.6,6.6,0,0,0-6.6-6.5H29.7a6.5,6.5,0,0,0-6.5,6.5V99.3H18.8a2.9,2.9,0,0,0-2.8,2.8,2.8,2.8,0,0,0,2.8,2.8h90.4a2.8,2.8,0,0,0,2.8-2.8A2.9,2.9,0,0,0,109.2,99.3Zm-67.7,0H28.8V60.1a.9.9,0,0,1,.9-.9H40.6a.9.9,0,0,1,.9.9V99.3Zm28.9,0H57.6V29.6a.9.9,0,0,1,.9-.9h11a.9.9,0,0,1,.9.9Zm28.9,0H86.5V45.1a.9.9,0,0,1,.9-.9h11a.9.9,0,0,1,.9.9V99.3Z"/></svg>