<svg width="30" height="30" viewBox="0 0 30 30" fill="none" xmlns="http://www.w3.org/2000/svg">
<path d="M15 9.30469C15.5062 9.30933 16.0025 9.16346 16.4256 8.88559C16.8488 8.60771 17.1799 8.21037 17.3769 7.74399C17.5738 7.27761 17.6278 6.76322 17.5319 6.26613C17.436 5.76903 17.1945 5.31164 16.8382 4.95201C16.4819 4.59239 16.0267 4.34674 15.5305 4.24625C15.0343 4.14576 14.5195 4.19497 14.0513 4.38762C13.5831 4.58027 13.1827 4.90768 12.901 5.32829C12.6192 5.7489 12.4688 6.24374 12.4688 6.75C12.4687 7.4235 12.7347 8.06977 13.2087 8.5482C13.6827 9.02663 14.3265 9.29851 15 9.30469Z" fill="#359BD3"/>
<path d="M20.2266 13.1719L18.2109 10.3828C18.1054 10.2373 17.9684 10.1175 17.8101 10.0323C17.6519 9.94709 17.4764 9.89866 17.2969 9.89062H12.7031C12.5236 9.89866 12.3481 9.94709 12.1899 10.0323C12.0316 10.1175 11.8946 10.2373 11.7891 10.3828L9.77343 13.1719C9.672 13.3224 9.61209 13.497 9.59974 13.6781C9.58739 13.8591 9.62305 14.0402 9.70312 14.2031L11.3437 17.1094C11.4419 17.2587 11.5735 17.383 11.7281 17.4725C11.8827 17.562 12.056 17.6142 12.2344 17.625H12.3281V24.6094C12.3281 24.9202 12.4516 25.2182 12.6713 25.438C12.8911 25.6578 13.1892 25.7813 13.5 25.7813H13.5937C13.9045 25.7813 14.2026 25.6578 14.4224 25.438C14.6422 25.2182 14.7656 24.9202 14.7656 24.6094V18.4688H15.2578V24.6094C15.2578 24.9202 15.3813 25.2182 15.601 25.438C15.8208 25.6578 16.1189 25.7813 16.4297 25.7813H16.5C16.8108 25.7813 17.1089 25.6578 17.3286 25.438C17.5484 25.2182 17.6719 24.9202 17.6719 24.6094V17.6484H17.7656C17.946 17.6351 18.1207 17.5793 18.2755 17.4856C18.4303 17.3919 18.5607 17.263 18.6562 17.1094L20.2969 14.2031C20.3769 14.0402 20.4126 13.8591 20.4002 13.6781C20.3879 13.497 20.328 13.3224 20.2266 13.1719ZM12.3281 15.4688L11.5312 14.1562C11.4895 14.0758 11.4697 13.9858 11.4738 13.8953C11.4779 13.8048 11.5058 13.7169 11.5547 13.6406L12.3281 12.5156V15.4688ZM17.6719 12.5391L18.4453 13.6406C18.4942 13.7169 18.5221 13.8048 18.5262 13.8953C18.5303 13.9858 18.5105 14.0758 18.4687 14.1562L17.6719 15.4453V12.5391Z" fill="#359BD3"/>
</svg>
