<svg id="Layer_1" data-name="Layer 1" xmlns="http://www.w3.org/2000/svg" viewBox="0 0 128 128"><title>icon</title><path d="M103.4,63.1H79.9a25.6,25.6,0,0,0,9.4-19.7,25.3,25.3,0,0,0-50.6,0,25.6,25.6,0,0,0,9.4,19.7H24.6A8.6,8.6,0,0,0,16,71.7v29.6a8.6,8.6,0,0,0,8.6,8.6h78.8a8.6,8.6,0,0,0,8.6-8.6V71.7A8.6,8.6,0,0,0,103.4,63.1ZM44.3,43.4A19.7,19.7,0,1,1,64,63.1,19.7,19.7,0,0,1,44.3,43.4Zm62.1,57.9a3,3,0,0,1-3,3H24.6a3,3,0,0,1-3-3V71.7a3,3,0,0,1,3-3h78.8a3,3,0,0,1,3,3Z"/><path d="M43.9,78a2.4,2.4,0,0,0-2.3-2.3h-.1a2.3,2.3,0,0,0-2.3,2.4v9.5L31.8,76.8a2.3,2.3,0,0,0-4.2,1.3V94.9a2.3,2.3,0,1,0,4.6,0V85.6l7.2,10.3A2.6,2.6,0,0,0,42.3,97a2.7,2.7,0,0,0,1.8-2.6h0Z"/><path d="M57.1,80.4a2.3,2.3,0,0,0,2.4-2.3,2.4,2.4,0,0,0-2.4-2.4H50a2.3,2.3,0,0,0-2.3,2.4V94.9A2.3,2.3,0,0,0,50,97.3h7.1a2.4,2.4,0,0,0,2.4-2.4,2.3,2.3,0,0,0-2.4-2.3H52.3V88.8h4.3a2.3,2.3,0,0,0,0-4.6H52.3V80.4Z"/><path d="M96.4,84.4c-2-.7-3.9-1.5-4.5-1.8a.7.7,0,0,1-.3-.9c0-.2.2-.8,1.1-1.1a5.6,5.6,0,0,1,4.5,1,2.5,2.5,0,0,0,1.5.5,2.3,2.3,0,0,0,2.3-2.3,2.3,2.3,0,0,0-.8-1.8h0c-.4-.3-4.2-3.3-8.8-1.9a6.2,6.2,0,0,0-4.5,5,5.7,5.7,0,0,0,2.5,5.5l.4.2c.1,0,2.4,1.1,5,2,.5.2,2.3,1,2.1,2.1a2.7,2.7,0,0,1-2.7,1.7A6,6,0,0,1,90,90.9a2.3,2.3,0,0,0-3.3-.2,2.4,2.4,0,0,0-.2,3.3,10.3,10.3,0,0,0,7.7,3.3,7.3,7.3,0,0,0,7.3-5.6c.4-2.5-.7-5.6-5.1-7.3Zm.8-2.8Z"/><path d="M82.8,75.8A2.4,2.4,0,0,0,80,77.6l-1.7,9-2.9-9.2a2.2,2.2,0,0,0-2.9-1.6,2.6,2.6,0,0,0-1.6,1.8l-2.8,9-1.7-9a2.3,2.3,0,0,0-2.8-1.8,2.2,2.2,0,0,0-1.8,2.7l3.3,16.6v.4a2.8,2.8,0,0,0,2.6,1.8h0a2.8,2.8,0,0,0,2.6-1.9h0L73.2,86l2.9,9.4h0a2.7,2.7,0,0,0,2.6,1.8h0a2.8,2.8,0,0,0,2.6-1.9v-.3l3.3-16.5a2.3,2.3,0,0,0-1.8-2.8Z"/><path d="M77.2,41,60.3,29.8a3,3,0,0,0-2.9-.2,2.9,2.9,0,0,0-1.5,2.5V54.6a2.8,2.8,0,0,0,1.5,2.5,3.1,3.1,0,0,0,1.3.3,2.9,2.9,0,0,0,1.6-.4L77.2,45.7a2.7,2.7,0,0,0,1.2-2.3A2.9,2.9,0,0,0,77.2,41ZM61.6,49.4v-12l9,6Z"/></svg>