<svg width="128" height="128" viewBox="0 0 128 128" fill="none" xmlns="http://www.w3.org/2000/svg">
<path d="M84 21.3H44C41.3478 21.3 38.8043 22.3536 36.9289 24.2289C35.0536 26.1043 34 28.6478 34 31.3V96.7C34 99.3521 35.0536 101.896 36.9289 103.771C38.8043 105.646 41.3478 106.7 44 106.7H84C86.6522 106.7 89.1957 105.646 91.0711 103.771C92.9464 101.896 94 99.3521 94 96.7V31.3C94 28.6478 92.9464 26.1043 91.0711 24.2289C89.1957 22.3536 86.6522 21.3 84 21.3V21.3ZM87.3 96.7C87.3 97.5752 86.9523 98.4146 86.3335 99.0334C85.7146 99.6523 84.8752 100 84 100H44C43.1248 100 42.2854 99.6523 41.6665 99.0334C41.0477 98.4146 40.7 97.5752 40.7 96.7V31.3C40.7 30.8666 40.7854 30.4375 40.9512 30.0371C41.117 29.6368 41.3601 29.273 41.6665 28.9665C41.973 28.6601 42.3368 28.417 42.7371 28.2512C43.1375 28.0853 43.5666 28 44 28H49.9L50.6 30.1C50.8566 30.7416 51.2974 31.293 51.8669 31.6845C52.4364 32.076 53.109 32.2902 53.8 32.3H74.2C74.891 32.2902 75.5636 32.076 76.1331 31.6845C76.7026 31.293 77.1434 30.7416 77.4 30.1L78.1 28H84C84.8752 28 85.7146 28.3477 86.3335 28.9665C86.9523 29.5854 87.3 30.4248 87.3 31.3V96.7Z" fill="white"/>
<path d="M78.6 69.6C76.4958 69.5691 74.4072 69.2322 72.4 68.6C71.9377 68.4473 71.4426 68.4224 70.9673 68.528C70.492 68.6336 70.0541 68.8658 69.7 69.2L65.8 72.1C61.6437 69.9444 58.2556 66.5563 56.1 62.4L59 58.6C59.351 58.235 59.6002 57.7845 59.7231 57.2933C59.8459 56.802 59.8379 56.2872 59.7 55.8C59.0195 53.8045 58.6814 51.7083 58.7 49.6C58.7 48.8839 58.4155 48.1972 57.9092 47.6908C57.4028 47.1845 56.7161 46.9 56 46.9H49.6C48.8839 46.9 48.1972 47.1845 47.6908 47.6908C47.1845 48.1972 46.9 48.8839 46.9 49.6C46.9 58.0074 50.2398 66.0704 56.1847 72.0153C62.1296 77.9602 70.1926 81.3 78.6 81.3C79.3161 81.3 80.0028 81.0155 80.5092 80.5092C81.0155 80.0028 81.3 79.3161 81.3 78.6V72.3C81.3 71.5839 81.0155 70.8971 80.5092 70.3908C80.0028 69.8845 79.3161 69.6 78.6 69.6Z" fill="white"/>
</svg>
