<svg id="Layer_1" data-name="Layer 1" xmlns="http://www.w3.org/2000/svg" viewBox="0 0 128 128"><defs><style>.cls-1,.cls-4{fill:#9e76b4;}.cls-2{fill:none;}.cls-3{fill:#fff;}.cls-4{font-size:17.66px;font-family:Roboto-Bold, Roboto;font-weight:700;}.cls-5{letter-spacing:-0.09em;}</style></defs><title>icon</title><circle class="cls-1" cx="64" cy="64" r="48"/><path class="cls-2" d="M32,32H96V96H32Z"/><path class="cls-3" d="M71.7,44.8H56.3a6,6,0,0,0-5.1,2.9L43.5,61.1a6,6,0,0,0,0,5.8l7.7,13.4a6,6,0,0,0,5.1,2.9H71.7a6,6,0,0,0,5.1-2.9l7.7-13.4a6,6,0,0,0,0-5.8L76.8,47.7A6,6,0,0,0,71.7,44.8Z"/><text class="cls-4" transform="translate(50.6 70.5)"><tspan class="cls-5">P</tspan><tspan x="9.9" y="0">AI</tspan></text><rect class="cls-2" width="128" height="128"/></svg>