<svg id="Layer_1" data-name="Layer 1" xmlns="http://www.w3.org/2000/svg" viewBox="0 0 128 128"><defs><style>.cls-1{fill:#f28c8c;}</style></defs><title>icon</title><path class="cls-1" d="M63.8,34.1A9.9,9.9,0,1,0,54,24.2,9.9,9.9,0,0,0,63.8,34.1Z"/><path class="cls-1" d="M85.9,66.8,77.1,39.6A3.9,3.9,0,0,0,73.6,37H54.4a3.9,3.9,0,0,0-3.5,2.6L42.1,66.8A2.3,2.3,0,0,0,44.4,70h1.4a4,4,0,0,0,3.6-2.6l4-12.1v6.5a4.9,4.9,0,0,0-1.6,1.6L45.2,75.1a2.7,2.7,0,0,0-.2,2.3,2.6,2.6,0,0,0,1.8,1.4L54,80.6v29a4,4,0,0,0,4,4h1a4,4,0,0,0,4-4V82.7h2.4v26.9a4,4,0,0,0,4,4h1a4,4,0,0,0,4-4V80.5l6.5-1.7a2.6,2.6,0,0,0,1.8-1.4,2.7,2.7,0,0,0-.2-2.3L75.9,63.4a6.1,6.1,0,0,0-1.6-1.6V55l4.3,12.5A4,4,0,0,0,82.2,70h1.4a2.3,2.3,0,0,0,2.3-3.2Z"/></svg>