<svg id="Layer_1" data-name="Layer 1" xmlns="http://www.w3.org/2000/svg" viewBox="0 0 128 128"><defs><style>.cls-1{fill:#f0f0f0;}.cls-2{fill:none;}.cls-3{fill:#9e76b4;}</style></defs><title>icon</title><circle class="cls-1" cx="64" cy="64" r="48"/><rect class="cls-2" x="32" y="32" width="64" height="64"/><path class="cls-3" d="M73.3,52.1a4.8,4.8,0,1,0-4.8-4.8A4.7,4.7,0,0,0,73.3,52.1Z"/><path class="cls-3" d="M82.5,64.2a3,3,0,0,0-2.1-2.1c-3.3-.9-5.7-3.2-7.4-7A5.2,5.2,0,0,0,70.6,52a5,5,0,0,0-3.9-.7h-.2L57,52c-2.6.2-4.1,3.7-5.1,6.2l-.8,1.7a2.9,2.9,0,0,0,.1,3,3.3,3.3,0,0,0,2.9,1.5,2.4,2.4,0,0,0,2.2-1.5l2.6-5,2.6-.2c-1.2,2.1-2.2,4-3.1,5.8a3.6,3.6,0,0,0-.4.9c-1.2,2-6.8,11.5-11.7,18.8a3.2,3.2,0,0,0,5,3.9,91.4,91.4,0,0,0,6-9.7c1.2-2.1,2.4-4.3,3.7-6.3a2.2,2.2,0,0,0,.9.7A24.4,24.4,0,0,1,68,76.9l-2.1,8.5a2.7,2.7,0,0,0,.7,2.7,3.2,3.2,0,0,0,2.3.9h1a3.4,3.4,0,0,0,2.2-2.3l2.3-9.1c0-.3.1-.6.1-.9a2.7,2.7,0,0,0-.6-2.4,32.6,32.6,0,0,0-6.6-6.3l3-5.7a17,17,0,0,0,8.5,5.7,2.9,2.9,0,0,0,2.8-.6A3.4,3.4,0,0,0,82.5,64.2Z"/><rect class="cls-2" width="128" height="128"/></svg>