<svg width="128" height="128" viewBox="0 0 128 128" fill="none" xmlns="http://www.w3.org/2000/svg">
<path d="M64 26.7C71.1966 26.6999 78.0999 29.5519 83.198 34.6313C88.2962 39.7107 91.1735 46.6034 91.2 53.8C91.2 63.4 88.6 67 73.4 87L64.7 98.5L64 99.4L63.3 98.5C60 94.2 57.2 90.4 54.6 87.1C39.4 67 36.8 63.4 36.8 53.8C36.8265 46.6034 39.7038 39.7107 44.802 34.6313C49.9001 29.5519 56.8034 26.6999 64 26.7V26.7ZM64 21.3C55.3886 21.3264 47.1374 24.7589 41.0482 30.8482C34.9589 36.9374 31.5264 45.1886 31.5 53.8C31.5 67.4 36.8 72.1 59 101.7H39C38.337 101.7 37.7011 101.963 37.2322 102.432C36.7634 102.901 36.5 103.537 36.5 104.2C36.5 104.863 36.7634 105.499 37.2322 105.968C37.7011 106.437 38.337 106.7 39 106.7H89C89.663 106.7 90.2989 106.437 90.7678 105.968C91.2366 105.499 91.5 104.863 91.5 104.2C91.5 103.537 91.2366 102.901 90.7678 102.432C90.2989 101.963 89.663 101.7 89 101.7H69C91.2 72.1 96.5 67.4 96.5 53.8C96.4736 45.1886 93.0411 36.9374 86.9518 30.8482C80.8626 24.7589 72.6114 21.3264 64 21.3V21.3Z" fill="white"/>
<path d="M64 40C61.2424 39.9802 58.5413 40.7811 56.2402 42.3009C53.9391 43.8206 52.142 45.9904 51.0776 48.5343C50.0131 51.0783 49.7295 53.8813 50.2626 56.587C50.7957 59.2926 52.1216 61.7785 54.0716 63.7284C56.0215 65.6784 58.5074 67.0042 61.213 67.5374C63.9187 68.0705 66.7217 67.7868 69.2657 66.7224C71.8096 65.658 73.9794 63.8609 75.4991 61.5598C77.0189 59.2587 77.8198 56.5576 77.8 53.8C77.8 50.14 76.3461 46.6299 73.7581 44.0419C71.1701 41.4539 67.66 40 64 40V40Z" fill="white"/>
</svg>
