<svg id="Layer_1" data-name="Layer 1" xmlns="http://www.w3.org/2000/svg" viewBox="0 0 128 128"><defs><style>.cls-1{fill:#9e76b4;}</style></defs><title>icon</title><path class="cls-1" d="M39.5,74.5l16.7-4.1a1.1,1.1,0,0,1,1.3.9l1.6,10.3a9,9,0,0,1-17.2,4.7L38.8,75.9a1,1,0,0,1,.7-1.4Z"/><path class="cls-1" d="M54.6,63.1,37.5,67.8a1.1,1.1,0,0,1-1.3-.7C31.4,55,27.4,48.9,28.1,38.7s4.7-17.5,13.4-20.8c7-2.6,12.9,1.9,15.3,8.4,3.1,8.3.4,16.9-.9,25.3a53.6,53.6,0,0,0-.6,6.9c0,.4.1,2.4.1,3.6a1,1,0,0,1-.8,1Z"/><path class="cls-1" d="M71.8,81.6l16.7,5.8a1,1,0,0,0,1.3-.5C95.5,75.1,100,69.3,100,59.2s-3.7-18-11.9-21.8-13,1-15.9,7.3c-3.7,8.1-1.5,16.8-.9,25.3a39.8,39.8,0,0,1,.1,6.9c0,.4-.2,2.4-.3,3.6a1,1,0,0,0,.7,1.1Z"/><path class="cls-1" d="M86,94,69.6,88.7a1.1,1.1,0,0,0-1.3.8L66,99.6a8.9,8.9,0,0,0,5.7,10.7,8.9,8.9,0,0,0,11.1-4.7l3.9-10.1A1.2,1.2,0,0,0,86,94Z"/></svg>