<svg id="Layer_1" data-name="Layer 1" xmlns="http://www.w3.org/2000/svg" viewBox="0 0 128 128"><defs><style>.cls-1{stroke:#000;stroke-miterlimit:10;}</style></defs><title>icon</title><path class="cls-1" d="M49.8,36.6A9.4,9.4,0,1,0,40.4,46,9.4,9.4,0,0,0,49.8,36.6Zm-9.4,5.7a5.7,5.7,0,0,1-5.6-5.7,5.6,5.6,0,0,1,11.2,0A5.7,5.7,0,0,1,40.4,42.3Z"/><path class="cls-1" d="M40.4,64.8A24.4,24.4,0,1,0,16,40.4,24.4,24.4,0,0,0,40.4,64.8Zm-9.4-6a9.4,9.4,0,0,1,18.7,0A21.2,21.2,0,0,1,40.4,61,21.6,21.6,0,0,1,31,58.8Zm9.4-39A20.6,20.6,0,0,1,53.2,56.5a13.1,13.1,0,0,0-25.7,0,20.8,20.8,0,0,1-7.7-16.1A20.6,20.6,0,0,1,40.4,19.8Z"/><path class="cls-1" d="M97,83.9a9.4,9.4,0,1,0-9.4,9.4A9.4,9.4,0,0,0,97,83.9Zm-9.4,5.6a5.6,5.6,0,0,1,0-11.2,5.6,5.6,0,1,1,0,11.2Z"/><path class="cls-1" d="M87.6,63.3A24.4,24.4,0,1,0,112,87.6,24.3,24.3,0,0,0,87.6,63.3ZM78.3,106A9.4,9.4,0,0,1,97,106a20.4,20.4,0,0,1-9.4,2.3A20,20,0,0,1,78.3,106Zm22.2-2.3a13.1,13.1,0,0,0-25.7,0A20.4,20.4,0,0,1,67,87.6a20.7,20.7,0,1,1,33.5,16.1Z"/><path class="cls-1" d="M60.3,103.4A13.2,13.2,0,0,1,47.1,90.3V88.4H49a1.9,1.9,0,0,0,1.5-3l-11.2-15a2.1,2.1,0,0,0-1.5-.8,1.8,1.8,0,0,0-1.5.8L25,85.4a1.9,1.9,0,0,0,1.5,3h1.9v1.9a16.8,16.8,0,0,0,16.9,16.8h15a1.8,1.8,0,0,0,1.8-1.8A1.8,1.8,0,0,0,60.3,103.4Zm-15,0A13.2,13.2,0,0,1,32.1,90.3V86.5a1.9,1.9,0,0,0-1.8-1.9l7.5-10,7.5,10a1.9,1.9,0,0,0-1.9,1.9v3.8a16.7,16.7,0,0,0,6.3,13.1Z"/><path class="cls-1" d="M70.7,25.4A13.2,13.2,0,0,1,83.9,38.5v1.9H82a1.9,1.9,0,0,0-1.7,1,2.1,2.1,0,0,0,.2,2l11.2,15a2.3,2.3,0,0,0,1.5.7,2,2,0,0,0,1.5-.7l11.3-15a2.1,2.1,0,0,0,.2-2,1.9,1.9,0,0,0-1.7-1h-1.9V38.5A16.9,16.9,0,0,0,85.7,21.6h-15a1.9,1.9,0,0,0,0,3.8Zm15,0A13.2,13.2,0,0,1,98.9,38.5v3.8a1.8,1.8,0,0,0,1.8,1.8l-7.5,10-7.5-10a1.8,1.8,0,0,0,1.9-1.8V38.5a16.6,16.6,0,0,0-6.3-13.1Z"/></svg>