<svg id="Layer_1" data-name="Layer 1" xmlns="http://www.w3.org/2000/svg" viewBox="0 0 128 128"><defs><style>.cls-1{fill:#9e76b4;}.cls-2{fill:none;}</style></defs><title>icon</title><path class="cls-1" d="M51.1,94.1a1.8,1.8,0,0,1-1.2-.5L25.7,69.3a3.6,3.6,0,0,1-1.2-2.7,3.8,3.8,0,0,1,1.2-2.8l3-3a3.9,3.9,0,0,1,2.8-1.1,3.9,3.9,0,0,1,2.7,1.1L51.1,77.7,93.8,35.1a3.6,3.6,0,0,1,2.7-1.2,3.6,3.6,0,0,1,2.8,1.2l3,3a3.6,3.6,0,0,1,1.2,2.8,3.6,3.6,0,0,1-1.2,2.7l-49.9,50A2.1,2.1,0,0,1,51.1,94.1Z"/><path class="cls-1" d="M96.5,36.5a1.1,1.1,0,0,1,1,.4l3,3a1.1,1.1,0,0,1,.4,1,1,1,0,0,1-.4.9L51.1,91.2,27.5,67.6a1.3,1.3,0,0,1-.4-1,1.2,1.2,0,0,1,.4-1l3-3a1.4,1.4,0,0,1,1-.4,1.4,1.4,0,0,1,.9.4L47.6,77.7l3.5,3.6,3.6-3.6L95.6,36.9a1,1,0,0,1,.9-.4m0-5.1A6.1,6.1,0,0,0,92,33.3L51.1,74.1,36,59a6.1,6.1,0,0,0-4.5-1.9A6.3,6.3,0,0,0,26.9,59l-3,3a6.5,6.5,0,0,0,0,9.1L48.1,95.4a4.2,4.2,0,0,0,3,1.2,4.3,4.3,0,0,0,3.1-1.2l49.9-50a6.5,6.5,0,0,0,0-9.1l-3-3a6.3,6.3,0,0,0-4.6-1.9Z"/><path class="cls-2" d="M0,0H128V128H0Z"/></svg>