<svg width="128" height="128" viewBox="0 0 128 128" fill="none" xmlns="http://www.w3.org/2000/svg">
<path d="M102.7 86.2C103.129 86.2134 103.555 86.1405 103.955 85.9857C104.355 85.8309 104.72 85.5973 105.028 85.2988C105.335 85.0003 105.58 84.643 105.747 84.2481C105.914 83.8532 106 83.4288 106 83V45.1C106 41.6164 104.623 38.274 102.169 35.8014C99.7153 33.3287 96.3835 31.9264 92.9 31.9H35.1C31.6165 31.9264 28.2847 33.3287 25.8308 35.8014C23.3769 38.274 21.9999 41.6164 22 45.1V82.9C21.9999 86.3836 23.3769 89.726 25.8308 92.1986C28.2847 94.6712 31.6165 96.0736 35.1 96.1H92.9C96.3835 96.0736 99.7153 94.6712 102.169 92.1986C104.623 89.726 106 86.3836 106 82.9C106 82.0248 105.652 81.1854 105.033 80.5665C104.415 79.9477 103.575 79.6 102.7 79.6C101.825 79.6 100.985 79.9477 100.367 80.5665C99.7477 81.1854 99.4 82.0248 99.4 82.9C99.4133 83.762 99.2549 84.618 98.9342 85.4182C98.6135 86.2183 98.1368 86.9468 97.5319 87.561C96.927 88.1752 96.206 88.6629 95.4108 88.9958C94.6156 89.3287 93.7621 89.5001 92.9 89.5H35.1C34.2379 89.5001 33.3844 89.3287 32.5892 88.9958C31.794 88.6629 31.073 88.1752 30.4681 87.561C29.8632 86.9468 29.3865 86.2183 29.0658 85.4182C28.7451 84.618 28.5867 83.762 28.6 82.9V45.7L57.1 68.4C59.1642 69.7067 61.557 70.4005 64 70.4005C66.443 70.4005 68.8358 69.7067 70.9 68.4L99.4 45.7V83C99.3998 83.4288 99.4858 83.8532 99.6528 84.2481C99.8198 84.643 100.065 85.0003 100.372 85.2988C100.68 85.5973 101.045 85.8309 101.445 85.9857C101.845 86.1405 102.271 86.2134 102.7 86.2ZM67.5 62.8C66.4593 63.4798 65.2431 63.8418 64 63.8418C62.7569 63.8418 61.5407 63.4798 60.5 62.8L31.3 39.7C32.4067 38.9058 33.7379 38.4854 35.1 38.5H92.9C94.2621 38.4854 95.5933 38.9058 96.7 39.7L67.5 62.8Z" fill="white"/>
</svg>
