<svg id="Layer_1" data-name="Layer 1" xmlns="http://www.w3.org/2000/svg" viewBox="0 0 128 128"><defs><style>.cls-1{fill:#b4b4b4;opacity:0.3;}.cls-2{fill:#787878;}.cls-3{fill:#9e76b4;}.cls-4{fill:#fff;}</style></defs><title>icon</title><circle class="cls-1" cx="64" cy="64" r="48"/><path class="cls-2" d="M65.7,41.8H42.5a5.8,5.8,0,0,0-5.8,5.8V85.5a5.8,5.8,0,0,0,5.8,5.8H65.7a5.8,5.8,0,0,0,5.8-5.8V47.6A5.8,5.8,0,0,0,65.7,41.8Zm1.9,43.7a1.9,1.9,0,0,1-1.9,2H42.5a2,2,0,0,1-2-2V47.6a1.9,1.9,0,0,1,2-1.9h3.4l.4,1.2a2.1,2.1,0,0,0,1.9,1.3H60a2,2,0,0,0,1.8-1.3l.4-1.2h3.5a1.8,1.8,0,0,1,1.9,1.9Z"/><path class="cls-2" d="M62.6,69.8a10.5,10.5,0,0,1-3.6-.6,1.6,1.6,0,0,0-1.6.4l-2.2,1.7a12.6,12.6,0,0,1-5.7-5.7l1.7-2.2a1.8,1.8,0,0,0,.4-1.6,11.3,11.3,0,0,1-.6-3.6,1.6,1.6,0,0,0-1.6-1.6H45.7a1.6,1.6,0,0,0-1.5,1.6A18.4,18.4,0,0,0,62.6,76.6,1.6,1.6,0,0,0,64.1,75V71.4A1.6,1.6,0,0,0,62.6,69.8Z"/><circle class="cls-3" cx="80.4" cy="52.1" r="18.2"/><path class="cls-3" d="M80.4,36.2a16,16,0,0,1,0,31.9,16,16,0,1,1,0-31.9m0-4.4a20.4,20.4,0,1,0,20.4,20.3A20.3,20.3,0,0,0,80.4,31.8Z"/><polygon class="cls-4" points="80.4 40.3 90.5 50.4 70.3 50.4 80.4 40.3"/><rect class="cls-4" x="75.4" y="50.4" width="10.1" height="8.33"/><rect class="cls-4" x="75.4" y="61.6" width="10.1" height="1.75"/></svg>