<svg id="Layer_1" data-name="Layer 1" xmlns="http://www.w3.org/2000/svg" viewBox="0 0 128 128"><defs><style>.cls-1{fill:none;}.cls-2{fill:#9e76b4;}</style></defs><title>icon</title><rect class="cls-1" x="0.3" y="0.3" width="127.3" height="127.32"/><path class="cls-2" d="M106,42.3a18.8,18.8,0,0,0-35.3-.4h-34A15.9,15.9,0,0,0,20.9,57.8V82.3A15.9,15.9,0,0,0,36.7,98.2H79.2A15.9,15.9,0,0,0,95.1,82.3v-16A18.9,18.9,0,0,0,106,42.3ZM87.6,67.6V82.3a8.4,8.4,0,0,1-8.4,8.4H36.7a8.4,8.4,0,0,1-8.4-8.4V57.8a8.5,8.5,0,0,1,8.4-8.4H69.4A19,19,0,0,0,87.6,67.6ZM76.9,48.7A11.4,11.4,0,1,1,88.3,60.1,11.4,11.4,0,0,1,76.9,48.7Z"/></svg>