<svg id="Layer_1" data-name="Layer 1" xmlns="http://www.w3.org/2000/svg" viewBox="0 0 128 128"><defs><style>.cls-1{fill:#fff;}</style></defs><title>icon</title><path class="cls-1" d="M96.2,25.6H95a3.1,3.1,0,0,0-3.1,3.2V40.2a1.1,1.1,0,0,1-1.1,1.1h-59a3.1,3.1,0,0,0-3.1,3.1v2.3a3.1,3.1,0,0,0,3.1,3.2H56.7V91.3a4.5,4.5,0,0,0,3.5,4.3l9.5,2.1v9.1a5.2,5.2,0,0,0,5.2,5.2h.4a5.2,5.2,0,0,0,5.2-5.2V99.7a4.3,4.3,0,0,0,3.2-2.6l.2-.7a3.3,3.3,0,0,0-.2-2.9,3.2,3.2,0,0,0-2.2-1.7l-1-.3V49.9H96.2a3.1,3.1,0,0,0,3.1-3.2V28.8A3.1,3.1,0,0,0,96.2,25.6ZM66.3,79.5h3.4v9.2l-1.8-.5a2.6,2.6,0,0,1-1.8-2.3Z"/><path class="cls-1" d="M68.6,38.6A11.3,11.3,0,1,0,57.3,27.3,11.4,11.4,0,0,0,68.6,38.6Z"/></svg>