<svg id="Layer_1" data-name="Layer 1" xmlns="http://www.w3.org/2000/svg" viewBox="0 0 128 128"><defs><style>.cls-1{fill:#b4b4b4;opacity:0.3;}.cls-2{fill:#fff;}</style></defs><title>icon</title><circle class="cls-1" cx="64" cy="64" r="48"/><path class="cls-2" d="M90.2,63V61a26.2,26.2,0,0,0-52.4,0v2a5.4,5.4,0,0,0-3.5,5V81.9a5.3,5.3,0,0,0,5.2,5.2h7a1.7,1.7,0,0,0,1.7-1.8V64.5a1.7,1.7,0,0,0-1.7-1.8H41.3V61a22.7,22.7,0,0,1,45.4,0v1.7H81.5a1.7,1.7,0,0,0-1.7,1.8V85.3a1.7,1.7,0,0,0,1.7,1.8h7a5.3,5.3,0,0,0,5.2-5.2V68a5.4,5.4,0,0,0-3.5-5Z"/></svg>