<svg id="Layer_1" data-name="Layer 1" xmlns="http://www.w3.org/2000/svg" viewBox="0 0 128 128"><defs><style>.cls-1{fill:#b4b4b4;opacity:0.3;}.cls-2{fill:#fff;}</style></defs><title>icon</title><circle class="cls-1" cx="64" cy="64" r="48"/><path class="cls-2" d="M61.9,49.1C57,45.3,51,44.5,46.5,44.5a36.5,36.5,0,0,0-9.3,1.2,1.3,1.3,0,0,0-1,1.3V83.5a1.3,1.3,0,0,0,1.3,1.3h.2a53.2,53.2,0,0,1,8.1-.6,34.5,34.5,0,0,1,11,1.6l5,2.8Z"/><path class="cls-2" d="M91.7,48.5V47a1.3,1.3,0,0,0-.9-1.3,37.3,37.3,0,0,0-9.4-1.2c-4.6,0-10.6.9-15.6,4.8V88.8l5.2-3a34.7,34.7,0,0,1,11.1-1.6,56.6,56.6,0,0,1,8.2.6,1.2,1.2,0,0,0,1.4-1.1c.1,0,.1-.1.1-.2v-35Z"/></svg>