<svg id="Layer_1" data-name="Layer 1" xmlns="http://www.w3.org/2000/svg" viewBox="0 0 128 128"><defs><style>.cls-1{fill:none;}.cls-2{fill:#f57c00;}</style></defs><title>icon</title><rect class="cls-1" y="0.1" width="128" height="128"/><path class="cls-2" d="M98,72.3v-.9c-1-13.4-7.2-21.7-12.6-29.1s-9-12.1-9-20.1a3.2,3.2,0,0,0-1.7-2.8,3,3,0,0,0-3.3.2A48,48,0,0,0,53.6,45.1,74.3,74.3,0,0,0,51.8,62c-5.2-2.6-6.5-11-6.5-11.1a3.5,3.5,0,0,0-1.7-2.4,2.8,2.8,0,0,0-2.8,0c-.5.2-10.3,5.2-10.9,24.6V75a34.1,34.1,0,0,0,68.2,0A22.6,22.6,0,0,0,98,72.3ZM47.2,89.8a34.3,34.3,0,0,1,.4-4.7,12.6,12.6,0,0,0,9.8,4.5A5.6,5.6,0,0,0,63,84a66.6,66.6,0,0,1,1.1-14,28.3,28.3,0,0,1,3.6-8A57.6,57.6,0,0,0,73,70.7c3.7,5.2,7.2,10.1,7.8,18.8,0,.5.1,1,.1,1.5,0,10-7.6,18.1-16.9,18.1S47.1,101,47.1,90.9A4.9,4.9,0,0,1,47.2,89.8Z"/></svg>