<svg id="Layer_1" data-name="Layer 1" xmlns="http://www.w3.org/2000/svg" viewBox="0 0 128 128"><defs><style>.cls-1{fill:#bf3737;}.cls-2{fill:none;}.cls-3{fill:#fff;}</style></defs><title>icon</title><circle class="cls-1" cx="64" cy="64" r="48"/><rect class="cls-2" x="32" y="32" width="64" height="64"/><path class="cls-3" d="M67.4,72.1l4.4-5a2.3,2.3,0,0,0,.3-2.1l-2.8-6.3a2.6,2.6,0,0,0-1.6-1.3L66.5,57h0l-3.9-1.2.5-1.5A5.1,5.1,0,0,0,67,56.2h.1a5.1,5.1,0,0,0,3.6-1.5,5.4,5.4,0,0,0,1.4-3.6,5,5,0,0,0-5.1-5,3.2,3.2,0,0,0-1.4.2L67,41.6a1.4,1.4,0,0,0-.1-1.1,1,1,0,0,0-.8-.6l-1-.4h-.4a1.5,1.5,0,0,0-1.4,1L58.5,55.9a.3.3,0,0,1-.1.2L50,85.5a2.3,2.3,0,0,0,.2,1.8,2.6,2.6,0,0,0,1.4,1.1h.9a2.4,2.4,0,0,0,2.3-1.7l4.1-14.1,1.9.5.8,2.7a22.9,22.9,0,0,1,.7,3.6l.9,7.1a2,2,0,0,0,2,1.8h.9a2.7,2.7,0,0,0,2-2.8l-.6-5.8a23.2,23.2,0,0,0-.7-3.8l-.9-3A2.4,2.4,0,0,0,67.4,72.1Zm.8-5.9L65.6,69l1.7-6.3,1.1,2.5A1.2,1.2,0,0,1,68.2,66.2ZM67,55.7Z"/><rect class="cls-2" width="128" height="128"/></svg>