<svg id="Layer_1" data-name="Layer 1" xmlns="http://www.w3.org/2000/svg" viewBox="0 0 128 128"><defs><style>.cls-1{fill:#fff;}</style></defs><title>icon</title><path class="cls-1" d="M45.3,39.7A10.9,10.9,0,1,0,34.5,28.8,10.9,10.9,0,0,0,45.3,39.7Z"/><path class="cls-1" d="M54.5,97.4V60.1a9.1,9.1,0,0,1,2.3-6.2v-.2a10.1,10.1,0,0,1,6.7-3.2l-4.5-6.2a5.5,5.5,0,0,0-4-2.1H35.6a5.2,5.2,0,0,0-4,2.1L23,56.2a4.1,4.1,0,0,0-.2,4.4L29.7,73a4.9,4.9,0,0,0,3.9,2.2h.3V105a5,5,0,0,0,5,5h.4a5,5,0,0,0,5-5V78.8h2.1V105a5,5,0,0,0,5,5h.4a5,5,0,0,0,5-5v-1.4A9.1,9.1,0,0,1,54.5,97.4ZM33.9,66l-3.4-5.6a2.4,2.4,0,0,1,.1-2.2l3.3-4.8Z"/><path class="cls-1" d="M93.6,109.5H64.1A12.1,12.1,0,0,1,52,97.4V60.1A12.1,12.1,0,0,1,64.1,48H93.6a12.1,12.1,0,0,1,12.1,12.1V97.4A12.1,12.1,0,0,1,93.6,109.5ZM64.1,53A7.1,7.1,0,0,0,57,60.1V97.4a7.1,7.1,0,0,0,7.1,7.1H93.6a7.1,7.1,0,0,0,7.1-7.1V60.1A7.1,7.1,0,0,0,93.6,53Z"/><rect class="cls-1" x="64.3" y="61.3" width="30.5" height="4.6" rx="2.2" ry="2.2"/><rect class="cls-1" x="64.3" y="73.1" width="30.5" height="4.6" rx="2.2" ry="2.2"/><rect class="cls-1" x="64.3" y="85" width="17.6" height="4.6" rx="1.6" ry="1.6"/></svg>