<svg id="Layer_1" data-name="Layer 1" xmlns="http://www.w3.org/2000/svg" viewBox="0 0 128 128"><defs><style>.cls-1{fill:#e4f6ff;}.cls-2{fill:#d3effb;}.cls-3{fill:#93d8e4;}.cls-4{fill:#7ad0df;}.cls-5{fill:none;}</style></defs><title>icon</title><path class="cls-1" d="M98,36.5l-.4,4L97.3,43l-6.6,62a9.6,9.6,0,0,1-9.6,8.7H46.9a9.6,9.6,0,0,1-9.6-8.7L30.7,43l-.3-2.5-.4-4Z"/><path class="cls-2" d="M98,36.5l-.4,4L97.3,43H30.7l-.3-2.5-.4-4L60.5,25.4Z"/><path class="cls-2" d="M55.5,113.7H46.9a9.6,9.6,0,0,1-9.6-8.7L30,36.5H47.2L50.8,105C51,110,53.1,113.7,55.5,113.7Z"/><path class="cls-3" d="M91.2,53.5l-5.5,51a4.6,4.6,0,0,1-4.6,4.2H46.9a4.6,4.6,0,0,1-4.6-4.2l-5.5-51Z"/><path class="cls-4" d="M51.3,108.7H46.9a4.6,4.6,0,0,1-4.6-4.2l-5.5-51H48.1L50.8,105a13.8,13.8,0,0,0,.5,3.7Z"/><circle class="cls-1" cx="75" cy="71.2" r="4.7"/><circle class="cls-1" cx="61.4" cy="91.8" r="3.8"/><path class="cls-1" d="M98.4,36.5H29.6a4.1,4.1,0,0,1-4.2-4.1V18.5a4.2,4.2,0,0,1,4.2-4.2H98.4a4.2,4.2,0,0,1,4.2,4.2V32.4a4.1,4.1,0,0,1-4.2,4.1Z"/><path class="cls-2" d="M55.4,36.5H29.6a4.1,4.1,0,0,1-4.2-4.1V18.5a4.2,4.2,0,0,1,4.2-4.2H55.4a4.2,4.2,0,0,0-4.2,4.2V32.4A4.1,4.1,0,0,0,55.4,36.5Z"/><rect class="cls-5" width="128" height="128"/></svg>