<svg id="Layer_1" data-name="Layer 1" xmlns="http://www.w3.org/2000/svg" viewBox="0 0 128 128"><defs><style>.cls-1{fill:#9e76b4;}.cls-2{fill:none;}</style></defs><title>icon</title><path class="cls-1" d="M64,16A37.4,37.4,0,0,0,26.7,53.3c0,18.4,26.5,50,31.9,56.2a7.1,7.1,0,0,0,10.8,0c5.4-6.2,31.9-37.8,31.9-56.2A37.4,37.4,0,0,0,64,16ZM86.9,53.3C86.9,61.6,75,79.6,64,93.5,53,79.6,41.1,61.6,41.1,53.3a22.9,22.9,0,0,1,45.8,0ZM64,35.1A13.9,13.9,0,1,0,77.9,49,13.9,13.9,0,0,0,64,35.1ZM67.3,49A3.3,3.3,0,1,1,64,45.6,3.3,3.3,0,0,1,67.3,49Z"/><rect class="cls-2" width="128" height="128"/></svg>