<svg id="Layer_1" data-name="Layer 1" xmlns="http://www.w3.org/2000/svg" viewBox="0 0 128 128"><defs><style>.cls-1{fill:#f0f0f0;}.cls-2{fill:none;}.cls-3{fill:#9e76b4;}</style></defs><title>icon</title><circle class="cls-1" cx="64" cy="64" r="48"/><rect class="cls-2" x="32" y="32" width="64" height="64"/><path class="cls-3" d="M77,66.3l-5.6-3.2a2.9,2.9,0,0,1-1-1.2L68.7,56a.5.5,0,0,0-.2-.4,1.3,1.3,0,0,0-1.3-.8l-7.4.3a1.3,1.3,0,0,0-.9.4h-.2l-5,3.9a2.2,2.2,0,0,0-.8,2l2,8.7a1.7,1.7,0,0,0,1.6,1.2h.9a1.2,1.2,0,0,0,1-.5,1.4,1.4,0,0,0,.3-1.1L57.2,63a2.5,2.5,0,0,1,.4-1.1l.9-.7L59,71.9h0l-2.1,4.5a4.9,4.9,0,0,1-1.4,1.8l-4.8,3.4a2.2,2.2,0,0,0-.7,2.6l.7,1.4a1.5,1.5,0,0,0,1.4.9,1.6,1.6,0,0,0,.9-.3l6.4-4.8a7,7,0,0,0,1.8-2l3.1-6.2h.3l5.2,14.3a2.7,2.7,0,0,0,2.5,1.7h1a2.4,2.4,0,0,0,1.5-1.3,2.2,2.2,0,0,0,.1-1.8L69.4,70.8c0-.1,0-.2-.1-.2l-.2-4.1,6.1,3.2h.7a1.6,1.6,0,0,0,1.3-.8l.4-.6A1.6,1.6,0,0,0,77,66.3Z"/><path class="cls-3" d="M62.7,53.7h.2A5.2,5.2,0,0,0,66.6,52a5.8,5.8,0,0,0,1.5-3.9,5.5,5.5,0,0,0-5.7-5.2,5.5,5.5,0,0,0-3.7,1.8,5,5,0,0,0-1.4,3.9A5.3,5.3,0,0,0,62.7,53.7Z"/><rect class="cls-2" width="128" height="128"/></svg>