<svg id="Layer_1" data-name="Layer 1" xmlns="http://www.w3.org/2000/svg" viewBox="0 0 128 128"><defs><style>.cls-1{fill:none;}</style></defs><title>icon</title><rect class="cls-1" width="128" height="128"/><path d="M82.5,40.2A9.6,9.6,0,1,0,73,30.6,9.6,9.6,0,0,0,82.5,40.2Z"/><path d="M100.9,64.4a5.7,5.7,0,0,0-4.1-4.1c-6.6-2-11.3-6.4-14.9-14a9.7,9.7,0,0,0-4.7-6.4,9.9,9.9,0,0,0-7.8-1.3.3.3,0,0,0-.4,0L50.1,40c-5.4.4-8.3,7.4-10.4,12.4a28.4,28.4,0,0,1-1.5,3.4,6,6,0,0,0,.3,6.1,6.6,6.6,0,0,0,5.7,3,5.4,5.4,0,0,0,4.5-3.1l5-10,5.2-.4c-2.3,4.2-4.4,8-6.2,11.5a14.6,14.6,0,0,0-.7,1.9c-2.4,4-13.6,23-23.4,37.7-2.5,3.2-1.3,6.7,1.2,8.7a6.1,6.1,0,0,0,8.8-1c4-5.2,8-12.4,12-19.3,2.4-4.4,4.9-8.8,7.4-12.7a5,5,0,0,0,1.7,1.5A43.8,43.8,0,0,1,72,89.9l-4.2,16.8a5.2,5.2,0,0,0,1.4,5.5,7,7,0,0,0,4.6,1.8,5.8,5.8,0,0,0,1.9-.3,5.9,5.9,0,0,0,4.4-4.6l4.6-18.2a4.1,4.1,0,0,0,.2-1.6,5.3,5.3,0,0,0-1.1-4.9A66.4,66.4,0,0,0,70.5,71.7l6.2-11.3A32.4,32.4,0,0,0,93.6,71.9a5.2,5.2,0,0,0,5.5-1.3A6.7,6.7,0,0,0,100.9,64.4Z"/></svg>