<svg id="Layer_1" data-name="Layer 1" xmlns="http://www.w3.org/2000/svg" viewBox="0 0 128 128"><defs><style>.cls-1{fill:#7da1b7;}</style></defs><title>icon</title><path class="cls-1" d="M47.2,72H33.6V50.8a4.2,4.2,0,0,0-1.3-3.1,6,6,0,0,0,1.3-3.8,5.8,5.8,0,0,0-11.6,0,6,6,0,0,0,1.3,3.8A4.2,4.2,0,0,0,22,50.8v52.4a1.6,1.6,0,0,0,1.6,1.6h5.7a1.6,1.6,0,0,0,1.6-1.5c.2-2,1.3-7.7,4-10.3H55.7a1.6,1.6,0,0,0,0-3.2H25.3V75.3H47.2v4.3a4.6,4.6,0,0,0,4.6,4.6h49.6l1.3-.2v5.8H53.8a1.6,1.6,0,1,0,0,3.2H93.1c2.7,2.6,3.8,8.2,4,10.3a1.5,1.5,0,0,0,1.6,1.5h5.7a1.6,1.6,0,0,0,1.6-1.6V76.1c0-2.8.5-9.3-4-11.2A20.8,20.8,0,0,0,92.4,63L54.2,58.3s-2.9-.2-2.9,3.2S47.2,72,47.2,72ZM25.3,72V50.8a.9.9,0,0,1,1-1h3a.9.9,0,0,1,1,1V72Zm2.5-30.6a2.6,2.6,0,1,1-2.5,2.5A2.5,2.5,0,0,1,27.8,41.4Zm.1,60.1H25.3V93h5.5A23.7,23.7,0,0,0,27.9,101.5ZM51.8,80.9a1.3,1.3,0,0,1-1.3-1.3l3.9-18.1,38,4.7a18.2,18.2,0,0,1,8.1,1.6,4,4,0,0,1,2.2,3.6v8.2h0a1.3,1.3,0,0,1-1.3,1.3Zm48.3,20.6A23.7,23.7,0,0,0,97.2,93h5.5v8.5Z"/><path class="cls-1" d="M41.7,72.7A10.8,10.8,0,1,1,52.5,61.9,10.8,10.8,0,0,1,41.7,72.7Zm0-18.6a7.8,7.8,0,1,0,7.8,7.8A7.8,7.8,0,0,0,41.7,54.1Z"/><path class="cls-1" d="M56.3,51.5h4.2A1.5,1.5,0,0,0,62,50.1a1.5,1.5,0,0,0-1.5-1.5H59.1l2.4-3.5a1.4,1.4,0,0,0,.1-1.5,1.3,1.3,0,0,0-1.3-.8H56.4a1.5,1.5,0,0,0,0,3h1.1l-2.4,3.4a1.5,1.5,0,0,0,1.2,2.3Z"/><path class="cls-1" d="M65.6,47h5.5a1.5,1.5,0,0,0,0-3H68.4l3.7-5.3a1.4,1.4,0,0,0,.1-1.6,1.4,1.4,0,0,0-1.3-.7H65.8a1.5,1.5,0,0,0-1.5,1.4,1.5,1.5,0,0,0,1.5,1.5h2.3l-3.7,5.4A1.5,1.5,0,0,0,65.6,47Z"/></svg>