<svg id="Layer_1" data-name="Layer 1" xmlns="http://www.w3.org/2000/svg" viewBox="0 0 128 128"><defs><style>.cls-1{fill:#d32f2f;}</style></defs><title>icon</title><path class="cls-1" d="M99.2,62.8a1.2,1.2,0,0,0-.3,1.7,20.1,20.1,0,0,1,3.8,11.9,20.4,20.4,0,1,1-6.9-15.3,1.2,1.2,0,0,0,1.7-.2,1.2,1.2,0,0,0-.1-1.7,22.5,22.5,0,0,0-11.8-5.4,42.4,42.4,0,0,0-1.3-12.1,3.5,3.5,0,0,1,.8-3.2l1.3-1.2a4.4,4.4,0,0,0,.1-6,4.1,4.1,0,0,0-3.1-1.4,4.5,4.5,0,0,0-3.2,1.4,3.4,3.4,0,0,1-3.8.7c-8.3-4.1-23.7-5-35.7-2a1.1,1.1,0,0,0-.9,1.5,1.1,1.1,0,0,0,1.4.8,71.4,71.4,0,0,1,18.2-1.6c6.4.3,12.1,1.6,16,3.5a5.8,5.8,0,0,0,6.5-1.1,1.8,1.8,0,0,1,1.5-.8,2.6,2.6,0,0,1,1.3.6,1.9,1.9,0,0,1-.1,2.7l-1.2,1.2a5.7,5.7,0,0,0-1.5,5.5,40.3,40.3,0,0,1,1.3,11.3h-.9A22.9,22.9,0,0,0,59.9,72c-9.4.5-19.4-1-25.6-3.7A5.9,5.9,0,0,0,28,69.5l-.4.4A1.8,1.8,0,0,1,25,67.3l1-1.1a5.8,5.8,0,0,0,1.5-5.5c-1.5-5.2-1.3-12.7.3-18.2a5.5,5.5,0,0,0-1.5-5.6L25,35.5a1.8,1.8,0,0,1,2.6-2.6l.6.6a5.7,5.7,0,0,0,6.4,1.1l7-2.4a1.1,1.1,0,0,0,.7-1.5,1.2,1.2,0,0,0-1.5-.8l-7.2,2.5a3.4,3.4,0,0,1-3.7-.6l-.6-.6a4.2,4.2,0,0,0-6,6l1.3,1.4a3,3,0,0,1,.8,3.2,40.7,40.7,0,0,0-.3,19.6,3.2,3.2,0,0,1-.8,3.1l-1,1a4.3,4.3,0,0,0,0,6.1,4.2,4.2,0,0,0,6,0l.4-.4a3.4,3.4,0,0,1,3.6-.7c5.8,2.6,14.3,4,22.9,4h3.4a11.5,11.5,0,0,0-.1,1.9A22.9,22.9,0,1,0,100.9,63a1.2,1.2,0,0,0-1.7-.2Z"/><path class="cls-1" d="M82.3,99.8A23.4,23.4,0,0,1,58.9,76.4a5.3,5.3,0,0,1,.1-1.3H56.2c-8.8,0-17.3-1.5-23.2-4a2.6,2.6,0,0,0-2.9.5l-.4.4a4.8,4.8,0,0,1-3.4,1.4A5.2,5.2,0,0,1,22.8,72a4.8,4.8,0,0,1-1.4-3.4,5,5,0,0,1,1.4-3.5l1.1-1a2.7,2.7,0,0,0,.6-2.6,40.7,40.7,0,0,1,.4-19.9,2.8,2.8,0,0,0-.7-2.6l-1.4-1.3a4.9,4.9,0,1,1,6.9-6.9l.6.5a2.8,2.8,0,0,0,3,.6l4.9-1.7,2.3-.8h.6c12.1-2.8,27.3-1.9,35.6,2.1a2.6,2.6,0,0,0,3-.5h.1a5,5,0,0,1,3.6-1.6h.1a5,5,0,0,1,3.4,1.6,4.9,4.9,0,0,1-.1,6.8l-1.3,1.2a2.8,2.8,0,0,0-.7,2.6,40.2,40.2,0,0,1,1.4,11.8,23.2,23.2,0,0,1,11.6,5.5,1.7,1.7,0,0,1,.6,1.2,1.5,1.5,0,0,1-.5,1.3,1.4,1.4,0,0,1-1.2.6,1.6,1.6,0,0,1-1.3-.4,19.8,19.8,0,1,0,6.7,14.9,20,20,0,0,0-3.7-11.6,1.6,1.6,0,0,1-.3-1.3,1.9,1.9,0,0,1,.7-1.2h0a1.7,1.7,0,0,1,1.4-.3,1.9,1.9,0,0,1,1.1.7,23.1,23.1,0,0,1,4.4,13.7A23.4,23.4,0,0,1,82.3,99.8Zm-22.1-26v.7a12.1,12.1,0,0,0-.1,1.9,22.3,22.3,0,1,0,40.3-13,.7.7,0,0,0-.9-.2h0a.7.7,0,0,0-.2.9,20.8,20.8,0,0,1,4,12.3,21,21,0,1,1-21-21,21.6,21.6,0,0,1,13.9,5.2c.2.3.6.2.9,0a.9.9,0,0,0,.1-.5.5.5,0,0,0-.2-.4,21.4,21.4,0,0,0-11.5-5.3H85v-.5a41.7,41.7,0,0,0-1.3-12,3.9,3.9,0,0,1,1-3.7l1.2-1.2a3.7,3.7,0,0,0,.2-5.2,3.4,3.4,0,0,0-2.7-1.2,3.9,3.9,0,0,0-2.8,1.2h0a4,4,0,0,1-4.4.7c-7.8-3.8-21.9-4.8-33.5-2.4l.2.3a3.8,3.8,0,0,1,.1,1,62.8,62.8,0,0,1,16.4-1.2c6.5.3,12.3,1.5,16.2,3.4a5.2,5.2,0,0,0,5.9-.9,2,2,0,0,1,1.9-.9,2.9,2.9,0,0,1,1.8.7A2.6,2.6,0,0,1,85,36l-1.2,1.2a5.1,5.1,0,0,0-1.3,5,40.6,40.6,0,0,1,1.3,11.4v.6H82.3a22.3,22.3,0,0,0-21.8,18v.5h-.5c-9.4.5-19.6-1-25.9-3.8a5.1,5.1,0,0,0-5.6,1.1l-.4.4a2.5,2.5,0,0,1-3.4,0,2.4,2.4,0,0,1,0-3.5l1-1a4.9,4.9,0,0,0,1.3-4.9,37.8,37.8,0,0,1,.3-18.6,5.1,5.1,0,0,0-1.3-5l-1.3-1.4A2.4,2.4,0,0,1,28,32.5l.6.6a5.2,5.2,0,0,0,5.8,1l4.7-1.6.5-.2a1.6,1.6,0,0,1-.4-.7c0-.2-.1-.3-.1-.5l-.6.2-4.7,1.6a3.8,3.8,0,0,1-4.3-.7l-.6-.6a3.7,3.7,0,0,0-5.2,5.2L25,38.2A3.8,3.8,0,0,1,26,42a39,39,0,0,0-.3,19.2,4.1,4.1,0,0,1-1,3.7l-1,1a3.9,3.9,0,0,0-1.1,2.7,3.6,3.6,0,0,0,1.1,2.6,3.7,3.7,0,0,0,5.2,0l.4-.4a3.9,3.9,0,0,1,4.2-.8c5.7,2.5,14,4,22.7,4h4ZM32,67.3a5.3,5.3,0,0,1,2.5.5c6,2.6,15.8,4,24.9,3.6A23.5,23.5,0,0,1,82.6,53a37.9,37.9,0,0,0-1.2-10.5A6.2,6.2,0,0,1,83,36.4l1.2-1.2a1.4,1.4,0,0,0,.1-1.9,1.5,1.5,0,0,0-.9-.4,1.1,1.1,0,0,0-1,.5h-.2a6.2,6.2,0,0,1-7.1,1.2c-3.8-1.9-9.4-3.1-15.8-3.4a65.3,65.3,0,0,0-17.9,1.6l-2,.7-4.5,1.5a6.4,6.4,0,0,1-7.1-1.2l-.6-.6a1.3,1.3,0,0,0-1.8,1.8l1.3,1.4a6,6,0,0,1,1.6,6.2A36.2,36.2,0,0,0,28,60.6a6.2,6.2,0,0,1-1.6,6.1l-1,1a1.3,1.3,0,0,0,1.8,1.8l.4-.4A6.2,6.2,0,0,1,32,67.3Zm9.2-36.9h-.4a.7.7,0,0,0-.5.8l.3.4h.8a.7.7,0,0,0,.4-.8.8.8,0,0,0-.4-.4Z"/><path class="cls-1" d="M91.7,51.8h3.4a1.2,1.2,0,0,0,0-2.4H94l2-2.9a1.3,1.3,0,0,0,.1-1.2,1.5,1.5,0,0,0-1.1-.7H91.8a1.2,1.2,0,0,0-1.2,1.2,1.2,1.2,0,0,0,1.2,1.3h.9l-2,2.8a1.2,1.2,0,0,0,1,1.9Z"/><path class="cls-1" d="M99.4,48.1h4.5a1.3,1.3,0,0,0,1.3-1.3,1.3,1.3,0,0,0-1.3-1.2h-2.2l3.1-4.4a1.5,1.5,0,0,0,0-1.3,1.1,1.1,0,0,0-1-.6H99.5a1.2,1.2,0,0,0,0,2.4h1.9l-3,4.4A1.3,1.3,0,0,0,99.4,48.1Z"/><path class="cls-1" d="M82.6,52.9A23.5,23.5,0,1,0,106,76.3,23.5,23.5,0,0,0,82.6,52.9Zm0,42.5a19.1,19.1,0,1,1,19.1-19.1A19.1,19.1,0,0,1,82.6,95.4Z"/><rect class="cls-1" x="80.5" y="64.1" width="4.1" height="15.74"/><rect class="cls-1" x="84.2" y="72" width="4.1" height="11.52" transform="translate(164.1 -8.5) rotate(90)"/></svg>