<svg id="Layer_1" data-name="Layer 1" xmlns="http://www.w3.org/2000/svg" viewBox="0 0 128 128"><defs><style>.cls-1{fill:none;}.cls-2{fill:#b1b1b2;}</style></defs><title>icon</title><rect class="cls-1" x="0.3" y="0.3" width="127.3" height="127.32"/><path class="cls-2" d="M42.6,99.8A35.8,35.8,0,1,1,78.4,64,35.8,35.8,0,0,1,42.6,99.8Zm0-64.2A28.4,28.4,0,1,0,71,64,28.4,28.4,0,0,0,42.6,35.6Z"/><path class="cls-2" d="M85.4,99.8A35.8,35.8,0,1,1,121.2,64,35.9,35.9,0,0,1,85.4,99.8Zm0-64.2A28.4,28.4,0,1,0,113.8,64,28.5,28.5,0,0,0,85.4,35.6Z"/></svg>