<svg id="Layer_1" data-name="Layer 1" xmlns="http://www.w3.org/2000/svg" viewBox="0 0 128 128"><defs><style>.cls-1{fill:none;}.cls-2{fill:#b1b1b2;stroke:#b1b1b2;stroke-miterlimit:10;stroke-width:1.42px;}</style></defs><title>icon</title><rect class="cls-1" x="0.3" y="0.3" width="127.3" height="127.32"/><path class="cls-2" d="M105.4,42.6a18.1,18.1,0,0,0-34.2,0H36.7A15.2,15.2,0,0,0,21.6,57.8V82.3A15.2,15.2,0,0,0,36.7,97.5H79.2A15.3,15.3,0,0,0,94.4,82.3V65.8A18.2,18.2,0,0,0,105.4,42.6ZM88.3,82.3a9.1,9.1,0,0,1-9.1,9.1H36.7a9.1,9.1,0,0,1-9.1-9.1V57.8a9.1,9.1,0,0,1,9.1-9.1H70.1A18.2,18.2,0,0,0,88.3,66.9V82.2Zm0-21.5a12.1,12.1,0,1,1,12.1-12.1A12.1,12.1,0,0,1,88.3,60.8Z"/></svg>