<svg id="Layer_1" data-name="Layer 1" xmlns="http://www.w3.org/2000/svg" viewBox="0 0 128 128"><defs><style>.cls-1{fill:none;}.cls-2{fill:#787878;}</style></defs><title>icon</title><path class="cls-1"  d="M0,0H128V128H0Z"/><path class="cls-2" style="fill:#000000;" d="M64,26.7A27.2,27.2,0,0,1,91.2,53.8c0,9.6-2.6,13.2-17.8,33.2L64.7,98.5l-.7.9-.7-.9c-3.3-4.3-6.1-8.1-8.7-11.4C39.4,67,36.8,63.4,36.8,53.8A27.2,27.2,0,0,1,64,26.7m0-5.4A32.6,32.6,0,0,0,31.5,53.8c0,13.6,5.3,18.3,27.5,47.9H39a2.5,2.5,0,0,0-2.5,2.5,2.5,2.5,0,0,0,2.5,2.5H89a2.5,2.5,0,0,0,2.5-2.5,2.5,2.5,0,0,0-2.5-2.5H69C91.2,72.1,96.5,67.4,96.5,53.8A32.6,32.6,0,0,0,64,21.3Z"/><path class="cls-2" style="fill:#000000;" d="M64,40A13.9,13.9,0,1,0,77.8,53.8,13.8,13.8,0,0,0,64,40Z"/></svg>