<svg id="Layer_1" data-name="Layer 1" xmlns="http://www.w3.org/2000/svg" viewBox="0 0 128 128"><defs><style>.cls-1{fill:#9e76b4;}</style></defs><title>icon</title><path class="cls-1" d="M99.9,95.4H28.1A6.1,6.1,0,0,1,22,89.3V42.1a6.1,6.1,0,0,1,6.1-6.2h5.3a2.7,2.7,0,0,1,0,5.3H28.1a.8.8,0,0,0-.8.9V89.3a.8.8,0,0,0,.8.9H99.9a.9.9,0,0,0,.9-.9V42.1a.9.9,0,0,0-.9-.9H94.6a2.7,2.7,0,0,1,0-5.3h5.3a6.1,6.1,0,0,1,6.1,6.2V89.3A6.1,6.1,0,0,1,99.9,95.4Z"/><path class="cls-1" d="M103.4,83.2H24.6a2.7,2.7,0,0,1,0-5.3h78.8a2.7,2.7,0,0,1,0,5.3Z"/><path class="cls-1" d="M75.4,105.9H52.6a2.6,2.6,0,0,1-2.4-1.6,2.4,2.4,0,0,1,.6-2.8,18.4,18.4,0,0,0,4.4-9,2.6,2.6,0,1,1,5.2.6,21.9,21.9,0,0,1-2.6,7.6H70.1a29.3,29.3,0,0,1-2.6-7.5,2.6,2.6,0,0,1,2.3-3,2.6,2.6,0,0,1,2.9,2.2,17.2,17.2,0,0,0,4.2,8.7,2.7,2.7,0,0,1,1.1,2.2,2.6,2.6,0,0,1-2.6,2.6Z"/><path class="cls-1" d="M83.2,28.3,64.8,22.1H63.2L44.8,28.3A2.7,2.7,0,0,0,43,30.8V44.9C43,62,62.2,70.4,63,70.7a2.6,2.6,0,0,0,2,0c.8-.3,20-8.7,20-25.8V30.8A2.7,2.7,0,0,0,83.2,28.3ZM79.7,44.9c0,11.6-12.1,18.7-15.7,20.5-3.7-1.8-15.8-8.8-15.8-20.5V32.7L64,27.3l15.7,5.4Z"/><path class="cls-1" d="M62.3,55.2a2.7,2.7,0,0,1-1.9-.8l-7-7a2.6,2.6,0,1,1,3.7-3.7L62,48.6,70.6,37a2.6,2.6,0,0,1,3.7-.5,2.5,2.5,0,0,1,.5,3.6l-10.5,14a2.7,2.7,0,0,1-1.9,1.1h-.1Z"/></svg>