<svg width="128" height="128" viewBox="0 0 128 128" fill="none" xmlns="http://www.w3.org/2000/svg">
<path d="M39.8 67.4L78.6 106.2C79.4719 107.084 80.6583 107.588 81.9 107.6C82.531 107.602 83.156 107.479 83.7394 107.238C84.3228 106.998 84.8531 106.645 85.3 106.2L88.2 103.3C89.0735 102.404 89.5624 101.202 89.5624 99.95C89.5624 98.6984 89.0735 97.4963 88.2 96.6L55.6 64L88.2 31.4C88.6454 30.9531 88.9983 30.4228 89.2385 29.8394C89.4787 29.256 89.6016 28.6309 89.6 28C89.5876 26.7582 89.0843 25.5718 88.2 24.7L85.4 21.8C84.9541 21.3525 84.4242 20.9974 83.8407 20.7552C83.2573 20.5129 82.6318 20.3882 82 20.3882C81.3683 20.3882 80.7427 20.5129 80.1593 20.7552C79.5758 20.9974 79.046 21.3525 78.6 21.8L39.8 60.6C39.3525 61.0459 38.9975 61.5758 38.7552 62.1593C38.5129 62.7427 38.3882 63.3682 38.3882 64C38.3882 64.6317 38.5129 65.2573 38.7552 65.8407C38.9975 66.4242 39.3525 66.9541 39.8 67.4V67.4Z" fill="black"/>
</svg>
