<svg id="Layer_1" data-name="Layer 1" xmlns="http://www.w3.org/2000/svg" viewBox="0 0 128 128"><defs><style>.cls-1{fill:#359bd3;}</style></defs><title>icon</title><path class="cls-1" d="M64,39.7A10.9,10.9,0,1,0,53.2,28.8,10.9,10.9,0,0,0,64,39.7Z"/><path class="cls-1" d="M86.3,56.2,77.7,44.3a5.1,5.1,0,0,0-3.9-2.1H54.2a5.1,5.1,0,0,0-3.9,2.1L41.7,56.2a4.4,4.4,0,0,0-.3,4.4l7,12.4a4.9,4.9,0,0,0,3.8,2.2h.4V105a5,5,0,0,0,5,5H58a5,5,0,0,0,5-5V78.8h2.1V105a5,5,0,0,0,5,5h.3a5,5,0,0,0,5-5V75.3h.4A4.9,4.9,0,0,0,79.6,73l7-12.4A4.4,4.4,0,0,0,86.3,56.2ZM52.6,66l-3.4-5.6a2.2,2.2,0,0,1,.1-2.2l3.3-4.8ZM75.4,53.5l3.3,4.7a2.2,2.2,0,0,1,.1,2.2l-3.4,5.5Z"/></svg>