<svg id="Layer_1" data-name="Layer 1" xmlns="http://www.w3.org/2000/svg" viewBox="0 0 128 128"><defs><style>.cls-1{fill:none;}.cls-2{fill:#787878;}</style></defs><title>icon</title><path class="cls-1" d="M0,0H128V128H0Z"/><path class="cls-2" style="fill:#000000;" d="M84,21.3H44a10,10,0,0,0-10,10V96.7a10,10,0,0,0,10,10H84a10,10,0,0,0,10-10V31.3A10,10,0,0,0,84,21.3Zm3.3,75.4A3.3,3.3,0,0,1,84,100H44a3.3,3.3,0,0,1-3.3-3.3V31.3A3.3,3.3,0,0,1,44,28h5.9l.7,2.1a3.5,3.5,0,0,0,3.2,2.2H74.2a3.5,3.5,0,0,0,3.2-2.2l.7-2.1H84a3.3,3.3,0,0,1,3.3,3.3Z"/><path class="cls-2" style="fill:#000000;" d="M78.6,69.6a21.7,21.7,0,0,1-6.2-1,2.7,2.7,0,0,0-2.7.6l-3.9,2.9a22.7,22.7,0,0,1-9.7-9.7L59,58.6a2.9,2.9,0,0,0,.7-2.8,18.7,18.7,0,0,1-1-6.2A2.7,2.7,0,0,0,56,46.9H49.6a2.7,2.7,0,0,0-2.7,2.7A31.7,31.7,0,0,0,78.6,81.3a2.7,2.7,0,0,0,2.7-2.7V72.3A2.7,2.7,0,0,0,78.6,69.6Z"/></svg>