<svg id="Layer_1" data-name="Layer 1" xmlns="http://www.w3.org/2000/svg" viewBox="0 0 128 128"><defs><style>.cls-1{fill:none;}.cls-2{fill:#9e76b4;}</style></defs><title>icon</title><rect class="cls-1" width="128" height="128"/><path class="cls-2" d="M64,21.1c15.2,0,28.9,3.4,33.9,8.6s9.9,24.4,8.9,42.4c-.8,13-4,23.3-8.5,27s-19.3,7.8-34.4,7.8-28.5-3-34.2-7.8h0c-4.5-3.7-7.8-14-8.5-27-1-18,2.8-36.2,8.9-42.4S48.8,21.1,64,21.1M64,16c-15.5,0-30.9,3.4-37.5,10.1C13.3,39.6,11.8,91,26.5,103c7.2,6,22.3,9,37.4,9s30.3-3,37.6-9c14.7-12,13.2-63.4,0-76.9C94.9,19.4,79.5,16,64,16Z"/><path class="cls-2" d="M92.5,64a5.4,5.4,0,0,1-5.4,5.4h-18v18a5.4,5.4,0,1,1-10.8,0v-18h-18a5.4,5.4,0,1,1,0-10.8h18V40.5a5.4,5.4,0,1,1,10.8,0V58.6h18A5.4,5.4,0,0,1,92.5,64Z"/></svg>