<svg id="Layer_1" data-name="Layer 1" xmlns="http://www.w3.org/2000/svg" viewBox="0 0 128 128"><defs><style>.cls-1{fill:#b4b4b4;opacity:0.3;}.cls-2{fill:#9e76b4;}</style></defs><title>icon</title><circle class="cls-1" cx="64" cy="64" r="48"/><path class="cls-2" d="M66.1,96.4a7.6,7.6,0,0,1-6.4-3.6l2.2,1.6a7.1,7.1,0,0,0,4.2,1.4h0a7.3,7.3,0,0,0,5.8-2.9l1.5-2.1a7.5,7.5,0,0,1-3.6,4.6A7.9,7.9,0,0,1,66.1,96.4ZM48.8,92.6a5,5,0,0,1-5.1-5.2,5.3,5.3,0,0,1,4.6-5.1,4.5,4.5,0,0,0,3.7-5L50,64.8A22.5,22.5,0,0,1,60.1,42.4l1.2-.7v-.2l3.4-1.3h.1l2.2-.6h.5l2.7-.4h6.2v.3l1.4.4A23.3,23.3,0,0,1,94.4,58.6l1.9,11.7a4.3,4.3,0,0,0,4.3,3.7h1.6a5.4,5.4,0,0,1,5.1,3.5c.1.3.1.5.2.8a5,5,0,0,1-1,3.9,5.6,5.6,0,0,1-3.3,2.1L73.8,88.8h0L57.6,91.3h0l-7.9,1.3ZM61.7,42.1h-.1A22.1,22.1,0,0,0,50.5,64.8l2,12.4a5,5,0,0,1-4.1,5.6,4.9,4.9,0,0,0-4.2,4.4v.2A4.8,4.8,0,0,0,45.8,91a4.6,4.6,0,0,0,3,1.1h.8L59,90.6l44.1-7a4.7,4.7,0,0,0,3.7-6.1h-.1a4.9,4.9,0,0,0-4.5-3h-1.6a4.9,4.9,0,0,1-4.9-4.1L93.9,58.7A22.7,22.7,0,0,0,76.3,39.9h-.4l-2.5-.3H70.2A23.2,23.2,0,0,0,61.8,42Zm-.6-2a7.6,7.6,0,0,1,6.3-8.4h1.3a7.6,7.6,0,0,1,7.5,6.2l-1.5-2.3a7.6,7.6,0,0,0-6-3.2H67.6a7.6,7.6,0,0,0-5.8,5.1Z"/><path class="cls-2" d="M68.7,29.4H67.1A9.8,9.8,0,0,0,59,40.6,24.6,24.6,0,0,0,47.8,65.2l2,12.4A2.2,2.2,0,0,1,48,80.1a7.5,7.5,0,0,0-6.5,7.3,7.2,7.2,0,0,0,7.3,7.4H50l7.6-1.2a9.7,9.7,0,0,0,8.5,5,9.4,9.4,0,0,0,4.8-1.3,9.8,9.8,0,0,0,4.8-6.6l27.8-4.4a7.4,7.4,0,0,0,6.2-8.4l-.3-1.2a7.5,7.5,0,0,0-7.2-5h-1.6A2.3,2.3,0,0,1,98.4,70L96.6,58.3A25.4,25.4,0,0,0,78.4,37.6a9.9,9.9,0,0,0-9.7-8.2ZM64,38.1a4.8,4.8,0,0,1,3.9-3.5h.8a5.1,5.1,0,0,1,4.1,2.3H70l-2.9.5h-.6l-2.3.7ZM48.8,89.9a2.7,2.7,0,0,1-1.6-.6,2.7,2.7,0,0,1-.8-1.9A2.6,2.6,0,0,1,48.7,85a7.2,7.2,0,0,0,6-8.2l-2-12.4a19.6,19.6,0,0,1,10-20.3h.1a21.7,21.7,0,0,1,7.6-2.3h2.8l2.5.3h.1A20.4,20.4,0,0,1,91.7,59l1.9,11.7a7,7,0,0,0,7,6h1.6a2.6,2.6,0,0,1,2.5,1.6,3,3,0,0,1-.2,2.1,2.8,2.8,0,0,1-1.8,1.2L73.1,86.1,58.7,88.4l-9.5,1.5Zm17.3,3.7a4.8,4.8,0,0,1-2.9-.9l6.9-1.1a4.9,4.9,0,0,1-4,2Z"/></svg>