<svg id="Layer_1" data-name="Layer 1" xmlns="http://www.w3.org/2000/svg" viewBox="0 0 128 128"><defs><style>.cls-1{fill:#9e76b4;}</style></defs><title>icon</title><path class="cls-1" d="M27.4,72.2v8.7a2.9,2.9,0,0,0,1.8,2.6,2.8,2.8,0,0,0,3-.6L42.7,72.4h7.5a14.1,14.1,0,0,0-.3,2.8V86.5A14.1,14.1,0,0,0,64,100.6H85.3l10.4,10.6a3,3,0,0,0,3.1.6,2.8,2.8,0,0,0,1.8-2.6v-8.9A14.2,14.2,0,0,0,112,86.5V75.2a14.2,14.2,0,0,0-14.2-14H83.4a13.3,13.3,0,0,0,.3-2.8V30.1A14.1,14.1,0,0,0,69.6,16H30.3A14.3,14.3,0,0,0,16,30.1V58.4A14.3,14.3,0,0,0,27.4,72.2Zm70.4-5.4a8.7,8.7,0,0,1,8.6,8.4V86.5a8.6,8.6,0,0,1-8.6,8.4,2.9,2.9,0,0,0-2.9,2.8v4.6l-6.4-6.5a2.5,2.5,0,0,0-2-.9H64a8.3,8.3,0,0,1-8.4-8.4V75.2a9,9,0,0,1,.4-2.8H69.6a14.2,14.2,0,0,0,11.3-5.6ZM21.6,30.1a8.7,8.7,0,0,1,8.7-8.5H69.6a8.5,8.5,0,0,1,8.5,8.5V58.4a8.5,8.5,0,0,1-8.5,8.4H41.5a3,3,0,0,0-2,.8l-6.4,6.5V69.6a2.9,2.9,0,0,0-2.8-2.8,8.7,8.7,0,0,1-8.7-8.4Z"/><circle class="cls-1" cx="69.6" cy="80.9" r="2.8"/><circle class="cls-1" cx="80.9" cy="80.9" r="2.8"/><circle class="cls-1" cx="92.1" cy="80.9" r="2.8"/><circle class="cls-1" cx="38.5" cy="40.2" r="2.8"/><circle class="cls-1" cx="49.8" cy="40.2" r="2.8"/><circle class="cls-1" cx="61" cy="40.2" r="2.8"/><circle class="cls-1" cx="38.5" cy="51.4" r="2.8"/><circle class="cls-1" cx="49.8" cy="51.4" r="2.8"/></svg>