<svg id="Layer_1" data-name="Layer 1" xmlns="http://www.w3.org/2000/svg" viewBox="0 0 128 128"><defs><style>.cls-1{fill:#304ffe;}.cls-2{fill:none;}.cls-3{fill:#fff;}</style></defs><title>icon</title><circle class="cls-1" cx="64" cy="64" r="48"/><path class="cls-2" d="M32,33.4H97.9V99.3H32Z"/><path class="cls-3" d="M60.9,43.3a5.4,5.4,0,1,0,5.4,5.4A5.4,5.4,0,0,0,60.9,43.3Zm0,8.1a2.7,2.7,0,1,1,2.7-2.7A2.7,2.7,0,0,1,60.9,51.4Z"/><path class="cls-3" d="M78.6,43.3a9.5,9.5,0,1,0,9.5,9.4A9.5,9.5,0,0,0,78.6,43.3Zm0,16.2a6.8,6.8,0,1,1,0-13.5,6.8,6.8,0,0,1,0,13.5Z"/><path class="cls-3" d="M81.3,51.4H79.9V50a1.3,1.3,0,0,0-1.3-1.3A1.3,1.3,0,0,0,77.2,50v2.7a1.4,1.4,0,0,0,1.4,1.4h2.7a1.3,1.3,0,0,0,1.3-1.4A1.3,1.3,0,0,0,81.3,51.4Z"/><path class="cls-3" d="M73.2,67.7H66.3V59.5a5.4,5.4,0,1,0-10.8,0V71.7a5.9,5.9,0,0,0,.2,1.4H52.2S50.8,61.6,50,55.3a3.9,3.9,0,0,0-4-3.9,4,4,0,0,0-4.1,4v.2l2.7,21.6A4.1,4.1,0,0,0,47.3,81v7.1a1.3,1.3,0,0,0,1.4,1.3A1.3,1.3,0,0,0,50,88.1V81.2H60.9v6.9a1.3,1.3,0,0,0,1.4,1.3,1.3,1.3,0,0,0,1.3-1.3V81a4.1,4.1,0,0,0,2.7-3.8,5.9,5.9,0,0,0-.2-1.4h3v9.6a4.1,4.1,0,0,0,8.1,0V71.7A4,4,0,0,0,73.2,67.7Zm1.3,17.7a1.3,1.3,0,0,1-1.3,1.3,1.3,1.3,0,0,1-1.4-1.3v-11a1.3,1.3,0,0,0-1.3-1.3H59.6a1.4,1.4,0,0,1-1.4-1.4V59.5a2.7,2.7,0,1,1,5.4,0V69A1.4,1.4,0,0,0,65,70.4h8.2a1.3,1.3,0,0,1,1.3,1.3Z"/></svg>