<svg id="Layer_1" data-name="Layer 1" xmlns="http://www.w3.org/2000/svg" viewBox="0 0 128 128"><title>icon</title><path d="M102,18.5H26A11.6,11.6,0,0,0,14.5,30V98A11.6,11.6,0,0,0,26,109.5h76A11.6,11.6,0,0,0,113.5,98V30A11.6,11.6,0,0,0,102,18.5Zm0,84H26A4.5,4.5,0,0,1,21.5,98V41.5h85V98A4.5,4.5,0,0,1,102,102.5Zm-76-77h76a4.5,4.5,0,0,1,4.5,4.5v4.5h-85V30A4.5,4.5,0,0,1,26,25.5Z"/><path d="M85.2,56.7a.8.8,0,0,0-.2-.5.1.1,0,0,0-.1-.1A3.4,3.4,0,0,0,82,54.5H70a3.5,3.5,0,0,0,0,7h3.6l-6.3,6.2-5.7-2.8a3.6,3.6,0,0,0-4.1.6l-14,14a3.7,3.7,0,0,0,0,5,3.6,3.6,0,0,0,5,0L60.7,72.3l5.7,2.8a3.6,3.6,0,0,0,4.1-.6l8-8.1V70a3.5,3.5,0,0,0,7,0V58a4.3,4.3,0,0,0-.2-1.2Z"/></svg>