<svg id="Layer_1" data-name="Layer 1" xmlns="http://www.w3.org/2000/svg" xmlns:xlink="http://www.w3.org/1999/xlink" viewBox="0 0 128 128"><defs><style>.cls-1{fill:none;}.cls-2{clip-path:url(#clip-path);}.cls-3{fill:#9e76b4;}</style><clipPath id="clip-path"><rect class="cls-1" x="13" y="-146.3" width="102" height="98.54"/></clipPath></defs><title>icon</title><g class="cls-2"><path class="cls-3" d="M39.3,25.9a5.6,5.6,0,0,1-5.6-5.6V-56.9l1.2-.2H35l24-6.2a12.6,12.6,0,0,0,7-5.1v33.7L76.1-51.2a6.1,6.1,0,0,0-.2-6.5L67.1-70.4c.1-.4.3-.8.4-1.3l1.9-6.6.8.8L84.2-58a4.5,4.5,0,0,1,.2,4.5L73.1-33.3A5.2,5.2,0,0,1,69-30.9H66V20.3a5.7,5.7,0,0,1-5.7,5.6h-.6a5.6,5.6,0,0,1-5.6-5.6V-25H45.6V20.3a5.7,5.7,0,0,1-5.7,5.6Z"/><path class="cls-3" d="M70.5-72.8,82.1-56.5a1.9,1.9,0,0,1,.1,1.8L70.9-34.6A3.3,3.3,0,0,1,69-33.4h-.8L72.8-41l5.5-8.9a8.9,8.9,0,0,0-.3-9.2l-5.3-7.7-2.8-4V-71l.6-1.8M63.4-62.5v29.1h0V20.3a3.1,3.1,0,0,1-3.1,3.1h-.6a3.1,3.1,0,0,1-3.1-3.1V-27.5H43V20.3a3.1,3.1,0,0,1-3.1,3.1h-.6a3.1,3.1,0,0,1-3.1-3.1V-54.8l23.4-6a18.4,18.4,0,0,0,3.8-1.7M67.8-82l-2.7,9.7a10.2,10.2,0,0,1-6.8,6.6L34.5-59.6a13.7,13.7,0,0,1-2.7.2h-.6V20.3a8.2,8.2,0,0,0,8.1,8.2h.6a8.2,8.2,0,0,0,8.2-8.2V-22.5h3.5V20.3a8.2,8.2,0,0,0,8.1,8.2h.6a8.2,8.2,0,0,0,8.2-8.2V-28.4H69a7.8,7.8,0,0,0,6.3-3.7L86.7-52.2a7.6,7.6,0,0,0-.4-7.3L72.2-79a8.7,8.7,0,0,0-4.4-3Zm.7,38.4V-63.9l5.4,7.7a4,4,0,0,1,.1,3.7l-5.5,8.9Z"/></g><path class="cls-3" d="M16,27l.4,3.7.2,2.3,6.1,57.5a9.1,9.1,0,0,0,9,8.1H63.3a9.1,9.1,0,0,0,9-8.1L78.4,33l.2-2.3L79,27ZM67.7,90a4.4,4.4,0,0,1-4.4,3.9H31.7A4.3,4.3,0,0,1,27.4,90L22.3,42.8H72.7Z"/><circle class="cls-3" cx="57.7" cy="59.2" r="4.4"/><circle class="cls-3" cx="45.1" cy="78.3" r="3.6"/><path class="cls-3" d="M111.1,79.9l-5-3.9a14.1,14.1,0,0,0,0-4.1l5-3.9a2.5,2.5,0,0,0,.6-3.1l-5.2-9a2.4,2.4,0,0,0-3-1l-5.9,2.3a15.1,15.1,0,0,0-3.5-2l-.9-6.3a2.3,2.3,0,0,0-2.4-2H80.5a2.3,2.3,0,0,0-2.4,2l-.9,6.3a15.1,15.1,0,0,0-3.5,2l-5.9-2.3a2.4,2.4,0,0,0-3,1l-5.2,9a2.5,2.5,0,0,0,.6,3.1l5,3.9a14.1,14.1,0,0,0,0,4.1l-5,3.9a2.4,2.4,0,0,0-.6,3.1l5.2,8.9a2.4,2.4,0,0,0,3,1.1l5.8-2.4a26,26,0,0,0,3.6,2.1l.9,6.2a2.4,2.4,0,0,0,2.4,2.1H90.8a2.4,2.4,0,0,0,2.4-2.1l.9-6.2a20.3,20.3,0,0,0,3.5-2.1l5.9,2.4a2.4,2.4,0,0,0,3-1.1l5.2-8.9A2.4,2.4,0,0,0,111.1,79.9ZM85.6,85.2A11.3,11.3,0,1,1,96.9,73.9,11.2,11.2,0,0,1,85.6,85.2Z"/></svg>