<svg id="Layer_1" data-name="Layer 1" xmlns="http://www.w3.org/2000/svg" viewBox="0 0 128 128"><defs><style>.cls-1{fill:#9e76b4;}.cls-2{fill:none;}</style></defs><title>icon</title><path class="cls-1" d="M86,64.8,75.6,58.2A4.6,4.6,0,0,1,74,55.9L71.1,44.5h0a2.9,2.9,0,0,0-2.8-2.4H54.2a2.7,2.7,0,0,0-1.7.6c-.1.1-.2.1-.2.2L42.3,50a4,4,0,0,0-1.6,3.9l3.1,16.5a3.2,3.2,0,0,0,3,2.5h1.6a2.9,2.9,0,0,0,2-.9,3.1,3.1,0,0,0,.5-2.1L48.7,57a2.4,2.4,0,0,1,.9-2l1.8-1.3V72.6l-9.2,29a4.5,4.5,0,0,0,.3,3.6,4.8,4.8,0,0,0,2.8,2.2h.6a3.2,3.2,0,0,0,1.3.2,5,5,0,0,0,4.7-3.4l8.8-27.5h.7l1.6,7.9a26.1,26.1,0,0,1,.5,4.8l.4,16.2a3.1,3.1,0,0,0,3.1,3.1h.5l3-.5a3.6,3.6,0,0,0,3.1-3.7l-.8-16.4c-.1-1.4-.3-3.6-.5-5L71,74.6a1.5,1.5,0,0,0,.1-.7V64.5L82.3,71a3.5,3.5,0,0,0,1.4.3,2.7,2.7,0,0,0,2.5-1.4l.8-1.2A2.9,2.9,0,0,0,86,64.8Z"/><path class="cls-1" d="M60.3,39.7A10.3,10.3,0,1,0,50.1,29.5,10.3,10.3,0,0,0,60.3,39.7Z"/><rect class="cls-2" width="128" height="128"/></svg>