<svg id="Layer_1" data-name="Layer 1" xmlns="http://www.w3.org/2000/svg" viewBox="0 0 128 128"><defs><style>.cls-1{fill:#007a6b;}.cls-2{fill:none;}.cls-3{fill:#fff;}</style></defs><title>icon</title><circle class="cls-1" cx="64" cy="64" r="48"/><rect class="cls-2" x="32" y="32" width="64" height="64"/><path class="cls-3" d="M82.6,43.9a42.4,42.4,0,0,0-37.2,0A11.6,11.6,0,0,0,39.3,56l3.6,23.5a10.5,10.5,0,0,0,10.4,8.9H74.7a10.5,10.5,0,0,0,10.4-8.9L88.7,56A11.6,11.6,0,0,0,82.6,43.9ZM52.4,46.7a38.3,38.3,0,0,1,23.2,0A3.3,3.3,0,0,1,77.7,51l-2.1,6.3a3.3,3.3,0,0,1-3.2,2.4H66.9L64,58.1l-2.9,1.6H55.6a3.3,3.3,0,0,1-3.2-2.4L50.3,51A3.3,3.3,0,0,1,52.4,46.7ZM81.3,69.4l-1.4,9.3a5.2,5.2,0,0,1-5.2,4.4H53.3a5.2,5.2,0,0,1-5.2-4.4l-1.4-9.3a4.1,4.1,0,0,1,4.1-4.8H77.2A4.1,4.1,0,0,1,81.3,69.4Z"/><path class="cls-3" d="M65,52.3a1,1,0,0,0-2,0l-1.9,7.4h5.8Z"/><rect class="cls-2" width="128" height="128"/></svg>