<svg id="Layer_1" data-name="Layer 1" xmlns="http://www.w3.org/2000/svg" viewBox="0 0 128 128"><defs><style>.cls-1{fill:#787878;}.cls-2{fill:#9e76b4;}.cls-3{fill:#fff;}</style></defs><title>icon</title><path class="cls-1" d="M71.7,31.6h-28a7,7,0,0,0-7,7V84.3a7,7,0,0,0,7,7h28a7,7,0,0,0,7-7V38.6A7,7,0,0,0,71.7,31.6ZM74,84.3a2.3,2.3,0,0,1-2.3,2.4h-28a2.4,2.4,0,0,1-2.4-2.4V38.6a2.4,2.4,0,0,1,2.4-2.4h4.1l.5,1.5a2.4,2.4,0,0,0,2.2,1.6H64.8a2.6,2.6,0,0,0,2.3-1.6l.4-1.5h4.2A2.3,2.3,0,0,1,74,38.6Z"/><path class="cls-1" d="M67.9,65.3a15.4,15.4,0,0,1-4.3-.6,1.7,1.7,0,0,0-1.9.4l-2.7,2a14.9,14.9,0,0,1-6.8-6.8l2-2.7a1.7,1.7,0,0,0,.4-1.9,15.9,15.9,0,0,1-.6-4.3,1.9,1.9,0,0,0-2-1.9H47.6a1.9,1.9,0,0,0-1.9,1.9A22.3,22.3,0,0,0,67.9,73.6a1.9,1.9,0,0,0,1.9-1.9V67.2A1.9,1.9,0,0,0,67.9,65.3Z"/><circle class="cls-2" cx="85.4" cy="43.6" r="18.2"/><path class="cls-2" d="M85.4,27.7a16,16,0,0,1,0,31.9,16,16,0,1,1,0-31.9m0-4.5a20.4,20.4,0,1,0,20.4,20.4A20.4,20.4,0,0,0,85.4,23.2Z"/><polygon class="cls-3" points="85.4 31.8 95.5 41.9 75.3 41.9 85.4 31.8"/><rect class="cls-3" x="80.4" y="41.9" width="10.1" height="8.33"/><rect class="cls-3" x="80.4" y="53.1" width="10.1" height="1.75"/></svg>