<svg id="Layer_1" data-name="Layer 1" xmlns="http://www.w3.org/2000/svg" viewBox="0 0 128 128"><title>icon</title><path d="M64,112a2.8,2.8,0,0,1-1.3-.3C61,111,22.9,94.5,22.9,60.8V32.2a3.5,3.5,0,0,1,2.3-3.3L62.9,16.2a2.8,2.8,0,0,1,2.2,0l37.7,12.7a3.5,3.5,0,0,1,2.3,3.3V60.8c0,33.7-38.1,50.2-39.8,50.9a2.8,2.8,0,0,1-1.3.3ZM29.7,34.6V60.8c0,26,27.8,40.9,34.3,44,6.5-3.1,34.3-18.1,34.3-44V34.6L64,23.1Z"/><path d="M58.9,79.4h-.2a3.1,3.1,0,0,1-2.5-1.3L42.5,61a3.4,3.4,0,1,1,5.3-4.3L59.1,70.9,80.4,49.6a3.4,3.4,0,0,1,4.9,0,3.4,3.4,0,0,1,0,4.8l-24,24a3.3,3.3,0,0,1-2.4,1Z"/></svg>