<svg id="Layer_1" data-name="Layer 1" xmlns="http://www.w3.org/2000/svg" viewBox="0 0 128 128"><defs><style>.cls-1{fill:none;}.cls-2{fill:#185b9e;}.cls-3{fill:#093c66;}.cls-4{fill:#fff;}.cls-5{fill:#e9edf5;}.cls-6{fill:#ffce00;}.cls-7{fill:#fdba12;}</style></defs><title>icon</title><rect class="cls-1" width="128" height="128"/><circle class="cls-2" cx="64" cy="63.9" r="49.6"/><path class="cls-3" d="M107.1,88.5,76.9,58.4v.5l-14.9-15-16,7.9L38.4,91.5l21.8,21.8,3.8.2a49.8,49.8,0,0,0,43.1-25Z"/><path class="cls-3" d="M73.6,52.7,107.9,87a50,50,0,0,0,5.7-23.1A53.1,53.1,0,0,0,112,51.3L90.6,29.9,71.4,35.7l8.5,8.6Z"/><path class="cls-4" d="M71.9,87a22.7,22.7,0,0,1-10-43.1H59.2A28.4,28.4,0,1,0,85.9,82.1a22.5,22.5,0,0,1-14,4.9Z"/><path class="cls-5" d="M71.9,87a22.7,22.7,0,0,1-18.3-9.3L36.2,88.8a28.4,28.4,0,0,0,49.7-6.7A22.5,22.5,0,0,1,71.9,87Z"/><path class="cls-6" d="M93.5,52.7H73.6l-2-5,11.9-12H71.4V29.9H90.6l2,5-12,12H93.5Z"/><path class="cls-7" d="M92.6,34.9l-2-5H81.4v5.8h2.1l-2.1,2.2v8.2Z"/><path class="cls-7" d="M81.4,46.9H93.5v5.8H81.4Z"/><path class="cls-6" d="M79.8,77.1H64l-2.1-4.9,8-8H61.6V58.4H76.9L79,63.3l-8,8h8.8Z"/><path class="cls-7" d="M79.8,71.3H71l8-8-2.1-4.9h-7v5.8h0V77.1h9.9Z"/></svg>