<svg id="Layer_1" data-name="Layer 1" xmlns="http://www.w3.org/2000/svg" viewBox="0 0 128 128"><defs><style>.cls-1{fill:#fff;}</style></defs><title>icon</title><path class="cls-1" d="M63.2,70.3h1.6a29.3,29.3,0,0,0,15-10.6,28.4,28.4,0,0,0,5.8-17.3V26.3a2.9,2.9,0,0,0-2.8-2.8,9.3,9.3,0,0,1-8.4-5.2l-.4-.7A2.7,2.7,0,0,0,71.5,16h-15A2.7,2.7,0,0,0,54,17.6l-.4.7a9.3,9.3,0,0,1-8.3,5.2,2.9,2.9,0,0,0-2.9,2.8V42.4a28.4,28.4,0,0,0,5.8,17.3,29.3,29.3,0,0,0,15,10.6ZM48.1,28.9a14.7,14.7,0,0,0,10.1-7.3H69.8a14.7,14.7,0,0,0,10.1,7.3V42.4A23.2,23.2,0,0,1,64,64.6,23.2,23.2,0,0,1,48.1,42.4Z"/><path class="cls-1" d="M61.3,51.3a2.8,2.8,0,0,0,2-.8L73.9,39.9a2.8,2.8,0,0,0,0-4,2.7,2.7,0,0,0-3.9,0l-8.7,8.6L58,41.2a2.7,2.7,0,0,0-3.9,0,2.8,2.8,0,0,0,0,4l5.3,5.3A2.7,2.7,0,0,0,61.3,51.3Z"/><path class="cls-1" d="M101,82.1a12.4,12.4,0,0,0,3.5-8.5,12.2,12.2,0,0,0-24.4,0,12.4,12.4,0,0,0,3.5,8.5,19.8,19.8,0,0,0-9.7,10.8l-2.1-1.4a9.9,9.9,0,0,0,2.5-6.7,10.3,10.3,0,0,0-20.6,0,9.9,9.9,0,0,0,2.5,6.7l-2.1,1.4a19.8,19.8,0,0,0-9.7-10.8,12.4,12.4,0,0,0,3.5-8.5,12.2,12.2,0,0,0-24.4,0A12.4,12.4,0,0,0,27,82.1,19.8,19.8,0,0,0,16,99.8v9.4a2.9,2.9,0,0,0,2.8,2.8h90.4a2.9,2.9,0,0,0,2.8-2.8V99.8a19.8,19.8,0,0,0-11-17.7ZM85.8,73.6A6.5,6.5,0,0,1,92.3,67a6.6,6.6,0,1,1,0,13.1A6.5,6.5,0,0,1,85.8,73.6ZM59.3,84.8A4.7,4.7,0,1,1,64,89.5,4.7,4.7,0,0,1,59.3,84.8ZM29.1,73.6a6.6,6.6,0,1,1,6.6,6.5A6.6,6.6,0,0,1,29.1,73.6ZM21.6,99.8a14.1,14.1,0,0,1,28.1-1.4,15.3,15.3,0,0,0-1.6,7v1H21.6Zm52.7,6.6H53.7v-1a10.3,10.3,0,0,1,20.6,0Zm32.1,0H79.9v-1a15.3,15.3,0,0,0-1.6-7,14.1,14.1,0,0,1,28.1,1.4Z"/></svg>