<svg id="Layer_1" data-name="Layer 1" xmlns="http://www.w3.org/2000/svg" viewBox="0 0 128 128"><defs><style>.cls-1{fill:#b4b4b4;}</style></defs><title>noti</title><path class="cls-1" d="M111.9,83.6c-.1-.6-.3-1.1-.4-1.7A10.7,10.7,0,0,0,99.6,75a3.1,3.1,0,0,1-3.5-2.6L93.5,56A35.9,35.9,0,0,0,67.9,26.9a13.8,13.8,0,0,0-27.3,4.2A34.6,34.6,0,0,0,25,65.7l2.7,17.5a3.1,3.1,0,0,1-2.6,3.5A10.8,10.8,0,0,0,16,96.9a10.3,10.3,0,0,0,10.3,10.5H28l10.7-1.7a13.7,13.7,0,0,0,18.6,5.3,14,14,0,0,0,6.8-9.3l39.1-6.1A10.4,10.4,0,0,0,111.9,83.6ZM53.2,22.7h1.1a7.1,7.1,0,0,1,5.8,3.2h-.2a23.8,23.8,0,0,0-3.8.1,29,29,0,0,0-4.1.6l-.8.2-3.2.9h-.3A6.9,6.9,0,0,1,53.2,22.7Zm-2.6,83a7.4,7.4,0,0,1-4.1-1.3l9.7-1.5A6.9,6.9,0,0,1,50.6,105.7Zm54-18.7a3.5,3.5,0,0,1-2.5,1.6L60.5,95.2,40.2,98.4l-13.3,2a3.2,3.2,0,0,1-2.8-.8A3.6,3.6,0,0,1,22.9,97a3.7,3.7,0,0,1,3.3-3.4,10,10,0,0,0,8.3-11.5L31.8,64.6a27.6,27.6,0,0,1,14-28.5H46a26.6,26.6,0,0,1,10.7-3.2,19.3,19.3,0,0,1,3.4-.1h.6a21.1,21.1,0,0,1,3.5.5h.1A28.8,28.8,0,0,1,86.7,57.1l2.6,16.4a9.8,9.8,0,0,0,11.4,8.3,3.8,3.8,0,0,1,4.2,2.3A3.7,3.7,0,0,1,104.6,87Z"/></svg>