<svg id="Layer_1" data-name="Layer 1" xmlns="http://www.w3.org/2000/svg" viewBox="0 0 128 128"><defs><style>.cls-1{fill:#b4b4b4;}</style></defs><title>setting</title><path class="cls-1" d="M109.1,74.5l-8.8-6.9a28.9,28.9,0,0,0,0-7.2l8.8-6.9a4.4,4.4,0,0,0,1.1-5.5L101,32.1a4.2,4.2,0,0,0-5.3-1.9L85.3,34.4A33.5,33.5,0,0,0,79,30.7l-1.6-11A4.2,4.2,0,0,0,73.2,16H54.8a4.2,4.2,0,0,0-4.2,3.6L49,30.7a33.5,33.5,0,0,0-6.3,3.7L32.3,30.2A4.3,4.3,0,0,0,27,32L17.8,47.9a4.4,4.4,0,0,0,1.1,5.6l8.8,6.9a28.9,28.9,0,0,0,0,7.2l-8.8,6.9A4.4,4.4,0,0,0,17.8,80L27,95.9a4.2,4.2,0,0,0,5.3,1.9l10.4-4.2A33.5,33.5,0,0,0,49,97.3l1.6,11a4.3,4.3,0,0,0,4.2,3.7H73.2a4.2,4.2,0,0,0,4.2-3.6L79,97.3a33.5,33.5,0,0,0,6.3-3.7l10.4,4.2A4.3,4.3,0,0,0,101,96l9.2-16A4.3,4.3,0,0,0,109.1,74.5ZM64,84A20,20,0,1,1,84,64,20,20,0,0,1,64,84Z"/></svg>